<?xml version="1.0" encoding="UTF-8"?>
<!DOCTYPE svg PUBLIC "-//W3C//DTD SVG 1.1//EN" "http://www.w3.org/Graphics/SVG/1.1/DTD/svg11.dtd">
<svg xmlns="http://www.w3.org/2000/svg" version="1.1" width="558px" height="447px" style="shape-rendering:geometricPrecision; text-rendering:geometricPrecision; image-rendering:optimizeQuality; fill-rule:evenodd; clip-rule:evenodd" xmlns:xlink="http://www.w3.org/1999/xlink">
<g><path style="opacity:1" fill="#030303" d="M 428.5,53.5 C 427.507,62.3178 427.173,71.3178 427.5,80.5C 420.167,80.5 412.833,80.5 405.5,80.5C 392.795,80.179 380.128,80.679 367.5,82C 359.112,83.2681 353.279,87.7681 350,95.5C 348.939,100.104 348.273,104.771 348,109.5C 347.5,128.83 347.333,148.164 347.5,167.5C 374.835,167.333 402.169,167.5 429.5,168C 430.116,169.4 430.449,170.9 430.5,172.5C 429.093,197.167 427.759,221.834 426.5,246.5C 400.167,246.5 373.833,246.5 347.5,246.5C 347.5,313.167 347.5,379.833 347.5,446.5C 320.167,446.5 292.833,446.5 265.5,446.5C 265.832,379.331 265.499,312.331 264.5,245.5C 246.5,245.5 228.5,245.5 210.5,245.5C 210.5,219.833 210.5,194.167 210.5,168.5C 229.008,168.83 247.341,168.497 265.5,167.5C 265.333,142.498 265.5,117.498 266,92.5C 266.339,89.1204 266.839,85.7871 267.5,82.5C 268.924,80.4855 269.59,78.1522 269.5,75.5C 270.924,73.4855 271.59,71.1522 271.5,68.5C 271.971,66.4214 272.637,64.4214 273.5,62.5C 274.906,62.0269 275.573,61.0269 275.5,59.5C 275.402,57.4471 276.069,55.7804 277.5,54.5C 278.906,54.0269 279.573,53.0269 279.5,51.5C 279.427,49.9731 280.094,48.9731 281.5,48.5C 282.906,48.0269 283.573,47.0269 283.5,45.5C 285.262,44.7377 286.262,43.4044 286.5,41.5C 288.587,40.4154 289.92,38.7488 290.5,36.5C 290.833,35.5 291.5,34.8333 292.5,34.5C 294.749,33.9202 296.415,32.5869 297.5,30.5C 298.891,28.1097 300.891,26.4431 303.5,25.5C 305.027,25.573 306.027,24.9063 306.5,23.5C 308.027,23.573 309.027,22.9063 309.5,21.5C 310.514,20.3263 311.847,19.6596 313.5,19.5C 315.027,19.573 316.027,18.9063 316.5,17.5C 318.649,16.2638 320.982,15.2638 323.5,14.5C 325.698,14.8799 327.365,14.2132 328.5,12.5C 328.833,12.5 329.167,12.5 329.5,12.5C 333.162,12.2766 336.495,11.2766 339.5,9.5C 344.921,7.78158 350.588,6.61492 356.5,6C 380.869,5.1216 405.202,5.6216 429.5,7.5C 429.769,22.862 429.436,38.1953 428.5,53.5 Z"/></g>
<g><path style="opacity:0.757" fill="#696969" d="M 339.5,9.5 C 336.495,11.2766 333.162,12.2766 329.5,12.5C 332.505,10.7234 335.838,9.7234 339.5,9.5 Z"/></g>
<g><path style="opacity:0.863" fill="#787878" d="M 328.5,12.5 C 327.365,14.2132 325.698,14.8799 323.5,14.5C 324.93,13.4625 326.597,12.7959 328.5,12.5 Z"/></g>
<g><path style="opacity:0.631" fill="#8a8a8a" d="M 316.5,17.5 C 316.027,18.9063 315.027,19.573 313.5,19.5C 313.973,18.0937 314.973,17.427 316.5,17.5 Z"/></g>
<g><path style="opacity:0.569" fill="#979797" d="M 309.5,21.5 C 309.027,22.9063 308.027,23.573 306.5,23.5C 306.973,22.0937 307.973,21.427 309.5,21.5 Z"/></g>
<g><path style="opacity:0.655" fill="#7f7f7f" d="M 306.5,23.5 C 306.027,24.9063 305.027,25.573 303.5,25.5C 303.973,24.0937 304.973,23.427 306.5,23.5 Z"/></g>
<g><path style="opacity:0.576" fill="#888888" d="M 297.5,30.5 C 296.415,32.5869 294.749,33.9202 292.5,34.5C 293.585,32.4131 295.251,31.0798 297.5,30.5 Z"/></g>
<g><path style="opacity:0.369" fill="#a9a9a9" d="M 290.5,36.5 C 289.92,38.7488 288.587,40.4154 286.5,41.5C 287.08,39.2512 288.413,37.5846 290.5,36.5 Z"/></g>
<g><path style="opacity:0.741" fill="#818181" d="M 286.5,41.5 C 286.262,43.4044 285.262,44.7377 283.5,45.5C 283.738,43.5956 284.738,42.2623 286.5,41.5 Z"/></g>
<g><path style="opacity:0.373" fill="#8b8b8b" d="M 283.5,45.5 C 283.573,47.0269 282.906,48.0269 281.5,48.5C 281.427,46.9731 282.094,45.9731 283.5,45.5 Z"/></g>
<g><path style="opacity:0.212" fill="#b4b4b4" d="M 279.5,51.5 C 279.573,53.0269 278.906,54.0269 277.5,54.5C 277.427,52.9731 278.094,51.9731 279.5,51.5 Z"/></g>
<g><path style="opacity:0.173" fill="#b4b4b4" d="M 275.5,59.5 C 275.573,61.0269 274.906,62.0269 273.5,62.5C 273.427,60.9731 274.094,59.9731 275.5,59.5 Z"/></g>
<g><path style="opacity:0.765" fill="#797979" d="M 271.5,68.5 C 271.59,71.1522 270.924,73.4855 269.5,75.5C 269.41,72.8478 270.076,70.5145 271.5,68.5 Z"/></g>
<g><path style="opacity:0.104" fill="#cacaca" d="M 428.5,53.5 C 428.5,62.8333 428.5,72.1667 428.5,81.5C 420.648,81.8254 412.982,81.492 405.5,80.5C 412.833,80.5 420.167,80.5 427.5,80.5C 427.173,71.3178 427.507,62.3178 428.5,53.5 Z"/></g>
<g><path style="opacity:0.333" fill="#9b9b9b" d="M 269.5,75.5 C 269.59,78.1522 268.924,80.4855 267.5,82.5C 267.41,79.8478 268.076,77.5145 269.5,75.5 Z"/></g>
<g><path style="opacity:0.31" fill="#bbbbbb" d="M 265.5,167.5 C 247.341,168.497 229.008,168.83 210.5,168.5C 210.5,194.167 210.5,219.833 210.5,245.5C 228.5,245.5 246.5,245.5 264.5,245.5C 246.341,246.497 228.008,246.83 209.5,246.5C 209.5,220.167 209.5,193.833 209.5,167.5C 228.167,167.5 246.833,167.5 265.5,167.5 Z"/></g>
</svg>
