<?xml version="1.0" encoding="UTF-8"?>
<!DOCTYPE svg PUBLIC "-//W3C//DTD SVG 1.1//EN" "http://www.w3.org/Graphics/SVG/1.1/DTD/svg11.dtd">
<svg xmlns="http://www.w3.org/2000/svg" version="1.1" width="503px" height="509px" style="shape-rendering:geometricPrecision; text-rendering:geometricPrecision; image-rendering:optimizeQuality; fill-rule:evenodd; clip-rule:evenodd" xmlns:xlink="http://www.w3.org/1999/xlink">
<g><path style="opacity:1" fill="#ebebeb" d="M -0.5,-0.5 C 43.5,-0.5 87.5,-0.5 131.5,-0.5C 131.5,0.166667 131.833,0.5 132.5,0.5C 132.34,4.23644 131.507,4.23644 130,0.5C 129.418,3.66769 128.418,4.00102 127,1.5C 126.047,3.59217 124.714,3.9255 123,2.5C 121.519,3.47088 120.685,4.80422 120.5,6.5C 88.4921,6.42732 56.1588,6.09399 23.5,5.5C 23.5,6.5 23.5,7.5 23.5,8.5C 21.4727,8.33788 19.4727,8.50454 17.5,9C 13.3382,11.9989 9.33816,15.1656 5.5,18.5C 3.13567,23.1794 1.13567,27.846 -0.5,32.5C -0.5,21.5 -0.5,10.5 -0.5,-0.5 Z"/></g>
<g><path style="opacity:1" fill="#e9e9e9" d="M 131.5,-0.5 C 246.833,-0.5 362.167,-0.5 477.5,-0.5C 477.354,1.94238 478.187,2.60905 480,1.5C 482.772,3.31963 483.605,5.65297 482.5,8.5C 481.167,8.5 479.833,8.5 478.5,8.5C 478.5,7.5 478.5,6.5 478.5,5.5C 427.182,6.10164 376.516,6.43497 326.5,6.5C 324.705,6.0163 323.205,4.68297 322,2.5C 320.663,4.00373 318.996,5.00373 317,5.5C 316.085,4.67209 315.419,3.67209 315,2.5C 310.667,3.83333 306.333,3.83333 302,2.5C 301.333,3.16667 300.667,3.83333 300,4.5C 298.333,3.5 296.667,2.5 295,1.5C 294.161,2.62414 292.994,3.29081 291.5,3.5C 289.662,2.88771 287.995,2.88771 286.5,3.5C 285.262,-0.310742 284.596,-0.310742 284.5,3.5C 282.799,3.03376 281.299,3.03376 280,3.5C 279.085,2.67209 278.419,1.67209 278,0.5C 277.418,3.66769 276.418,4.00102 275,1.5C 273.691,3.89118 272.691,3.89118 272,1.5C 269.929,4.41552 268.595,4.08218 268,0.5C 267.418,3.66769 266.418,4.00102 265,1.5C 263.315,3.98784 261.981,3.65451 261,0.5C 260,4.5 259,4.5 258,0.5C 257,4.5 256,4.5 255,0.5C 253.332,4.23721 251.999,4.23721 251,0.5C 250,4.5 249,4.5 248,0.5C 246.886,4.29907 245.553,4.29907 244,0.5C 243,4.5 242,4.5 241,0.5C 240,4.5 239,4.5 238,0.5C 237.019,3.68867 235.686,4.02201 234,1.5C 232.582,4.00102 231.582,3.66769 231,0.5C 230.131,3.76261 228.797,4.09594 227,1.5C 226.309,3.89118 225.309,3.89118 224,1.5C 222.582,4.00102 221.582,3.66769 221,0.5C 220.581,1.67209 219.915,2.67209 219,3.5C 217.887,2.28891 216.72,2.28891 215.5,3.5C 214.749,2.62402 214.249,1.62402 214,0.5C 213.751,1.62402 213.251,2.62402 212.5,3.5C 210.013,3.21761 207.347,3.21761 204.5,3.5C 204.404,-0.310742 203.738,-0.310742 202.5,3.5C 201.808,2.97473 201.308,2.30806 201,1.5C 200.612,2.42797 199.945,3.09464 199,3.5C 192.853,3.33996 186.687,3.33996 180.5,3.5C 179.006,3.29081 177.839,2.62414 177,1.5C 176.692,2.30806 176.192,2.97473 175.5,3.5C 173.013,3.21761 170.347,3.21761 167.5,3.5C 167.649,2.44802 167.483,1.44802 167,0.5C 166.581,1.67209 165.915,2.67209 165,3.5C 164,2.16667 163,2.16667 162,3.5C 160.684,0.972034 159.517,0.972034 158.5,3.5C 157.808,2.97473 157.308,2.30806 157,1.5C 156.692,2.30806 156.192,2.97473 155.5,3.5C 154.167,2.16667 152.833,2.16667 151.5,3.5C 150.749,2.62402 150.249,1.62402 150,0.5C 149.418,3.66769 148.418,4.00102 147,1.5C 146.692,2.30806 146.192,2.97473 145.5,3.5C 144.167,2.16667 142.833,2.16667 141.5,3.5C 140.808,2.97473 140.308,2.30806 140,1.5C 139,4.16667 138,4.16667 137,1.5C 136.692,2.30806 136.192,2.97473 135.5,3.5C 134.265,2.66023 133.265,1.66023 132.5,0.5C 131.833,0.5 131.5,0.166667 131.5,-0.5 Z"/></g>
<g><path style="opacity:1" fill="#e6e6e6" d="M 132.5,0.5 C 133.265,1.66023 134.265,2.66023 135.5,3.5C 136.192,2.97473 136.692,2.30806 137,1.5C 138,4.16667 139,4.16667 140,1.5C 140.308,2.30806 140.808,2.97473 141.5,3.5C 142.833,2.16667 144.167,2.16667 145.5,3.5C 146.192,2.97473 146.692,2.30806 147,1.5C 148.418,4.00102 149.418,3.66769 150,0.5C 150.249,1.62402 150.749,2.62402 151.5,3.5C 152.833,2.16667 154.167,2.16667 155.5,3.5C 156.192,2.97473 156.692,2.30806 157,1.5C 157.308,2.30806 157.808,2.97473 158.5,3.5C 159.517,0.972034 160.684,0.972034 162,3.5C 163,2.16667 164,2.16667 165,3.5C 165.915,2.67209 166.581,1.67209 167,0.5C 167.483,1.44802 167.649,2.44802 167.5,3.5C 170.347,3.21761 173.013,3.21761 175.5,3.5C 176.192,2.97473 176.692,2.30806 177,1.5C 177.839,2.62414 179.006,3.29081 180.5,3.5C 186.687,3.33996 192.853,3.33996 199,3.5C 199.945,3.09464 200.612,2.42797 201,1.5C 201.308,2.30806 201.808,2.97473 202.5,3.5C 203.738,-0.310742 204.404,-0.310742 204.5,3.5C 207.347,3.21761 210.013,3.21761 212.5,3.5C 213.251,2.62402 213.751,1.62402 214,0.5C 214.249,1.62402 214.749,2.62402 215.5,3.5C 216.72,2.28891 217.887,2.28891 219,3.5C 219.915,2.67209 220.581,1.67209 221,0.5C 221.582,3.66769 222.582,4.00102 224,1.5C 225.309,3.89118 226.309,3.89118 227,1.5C 228.797,4.09594 230.131,3.76261 231,0.5C 231.582,3.66769 232.582,4.00102 234,1.5C 235.686,4.02201 237.019,3.68867 238,0.5C 239,4.5 240,4.5 241,0.5C 242,4.5 243,4.5 244,0.5C 245.553,4.29907 246.886,4.29907 248,0.5C 249,4.5 250,4.5 251,0.5C 251.999,4.23721 253.332,4.23721 255,0.5C 256,4.5 257,4.5 258,0.5C 259,4.5 260,4.5 261,0.5C 261.981,3.65451 263.315,3.98784 265,1.5C 266.418,4.00102 267.418,3.66769 268,0.5C 268.595,4.08218 269.929,4.41552 272,1.5C 272.691,3.89118 273.691,3.89118 275,1.5C 276.418,4.00102 277.418,3.66769 278,0.5C 278.419,1.67209 279.085,2.67209 280,3.5C 281.299,3.03376 282.799,3.03376 284.5,3.5C 284.596,-0.310742 285.262,-0.310742 286.5,3.5C 287.995,2.88771 289.662,2.88771 291.5,3.5C 292.994,3.29081 294.161,2.62414 295,1.5C 296.667,2.5 298.333,3.5 300,4.5C 300.667,3.83333 301.333,3.16667 302,2.5C 306.333,3.83333 310.667,3.83333 315,2.5C 315.419,3.67209 316.085,4.67209 317,5.5C 318.996,5.00373 320.663,4.00373 322,2.5C 323.205,4.68297 324.705,6.0163 326.5,6.5C 257.833,6.5 189.167,6.5 120.5,6.5C 120.685,4.80422 121.519,3.47088 123,2.5C 124.714,3.9255 126.047,3.59217 127,1.5C 128.418,4.00102 129.418,3.66769 130,0.5C 131.507,4.23644 132.34,4.23644 132.5,0.5 Z"/></g>
<g><path style="opacity:1" fill="#f1f1f1" d="M 120.5,6.5 C 189.167,6.5 257.833,6.5 326.5,6.5C 376.516,6.43497 427.182,6.10164 478.5,5.5C 478.5,6.5 478.5,7.5 478.5,8.5C 326.833,8.5 175.167,8.5 23.5,8.5C 23.5,7.5 23.5,6.5 23.5,5.5C 56.1588,6.09399 88.4921,6.42732 120.5,6.5 Z"/></g>
<g><path style="opacity:1" fill="#ececec" d="M 477.5,-0.5 C 485.833,-0.5 494.167,-0.5 502.5,-0.5C 502.5,10.5 502.5,21.5 502.5,32.5C 500.049,20.9028 493.383,12.9028 482.5,8.5C 483.605,5.65297 482.772,3.31963 480,1.5C 478.187,2.60905 477.354,1.94238 477.5,-0.5 Z"/></g>
<g><path style="opacity:1" fill="#fdfdfd" d="M 23.5,8.5 C 175.167,8.5 326.833,8.5 478.5,8.5C 479.833,8.5 481.167,8.5 482.5,8.5C 493.383,12.9028 500.049,20.9028 502.5,32.5C 502.5,183.833 502.5,335.167 502.5,486.5C 500.809,490.888 498.809,495.221 496.5,499.5C 492.686,503.013 488.686,506.013 484.5,508.5C 438.833,508.5 393.167,508.5 347.5,508.5C 347.5,444.167 347.5,379.833 347.5,315.5C 368.833,315.5 390.167,315.5 411.5,315.5C 412.931,315.119 413.764,314.119 414,312.5C 414.499,307.845 414.666,303.179 414.5,298.5C 415.486,294.03 415.819,289.363 415.5,284.5C 417.308,283.082 417.975,281.082 417.5,278.5C 417.5,277.833 417.5,277.167 417.5,276.5C 418.268,275.737 418.768,274.737 419,273.5C 419.498,270.183 419.665,266.85 419.5,263.5C 420.114,259.865 420.448,256.198 420.5,252.5C 420.739,248.158 421.073,243.824 421.5,239.5C 397.339,238.502 373.006,238.169 348.5,238.5C 348.188,216.121 348.521,193.788 349.5,171.5C 350.824,168.851 352.158,166.184 353.5,163.5C 354.265,162.388 355.265,161.721 356.5,161.5C 358.19,161.144 359.19,160.144 359.5,158.5C 360.167,158.5 360.833,158.5 361.5,158.5C 367.173,156.769 372.84,155.435 378.5,154.5C 393.658,153.504 408.991,153.17 424.5,153.5C 425.497,131.006 425.831,108.339 425.5,85.5C 423.194,85.0074 420.861,84.6741 418.5,84.5C 412.167,84.5 405.833,84.5 399.5,84.5C 397.5,84.5 395.5,84.5 393.5,84.5C 387.034,83.1697 380.201,82.503 373,82.5C 366.167,82.6667 359.333,82.8333 352.5,83C 351.263,83.2321 350.263,83.7321 349.5,84.5C 349.167,84.5 348.833,84.5 348.5,84.5C 340.854,84.2424 333.854,85.909 327.5,89.5C 321.02,91.0729 315.02,93.7396 309.5,97.5C 303.948,100.708 298.948,104.708 294.5,109.5C 292.413,110.585 291.08,112.251 290.5,114.5C 287.529,116.443 285.529,119.109 284.5,122.5C 282.331,124.34 280.998,126.674 280.5,129.5C 280.068,130.71 279.401,131.71 278.5,132.5C 275.562,136.611 273.562,141.277 272.5,146.5C 272.5,147.5 272.5,148.5 272.5,149.5C 269.886,152.968 268.886,156.968 269.5,161.5C 268.517,165.298 268.183,169.298 268.5,173.5C 267.503,194.994 267.169,216.66 267.5,238.5C 245.993,238.169 224.66,238.503 203.5,239.5C 201.509,264.478 200.843,289.811 201.5,315.5C 223.5,315.5 245.5,315.5 267.5,315.5C 267.5,379.833 267.5,444.167 267.5,508.5C 184.5,508.5 101.5,508.5 18.5,508.5C 11.6206,505.125 6.12062,500.125 2,493.5C 1.50335,491.19 1.33669,488.857 1.5,486.5C 0.845647,431.36 0.17898,376.36 -0.5,321.5C -0.5,225.167 -0.5,128.833 -0.5,32.5C 1.13567,27.846 3.13567,23.1794 5.5,18.5C 9.33816,15.1656 13.3382,11.9989 17.5,9C 19.4727,8.50454 21.4727,8.33788 23.5,8.5 Z"/></g>
<g><path style="opacity:1" fill="#dedede" d="M 393.5,84.5 C 386.849,84.6158 380.349,84.6158 374,84.5C 373.331,87.0278 372.498,87.0278 371.5,84.5C 364.162,83.3153 356.829,83.3153 349.5,84.5C 350.263,83.7321 351.263,83.2321 352.5,83C 359.333,82.8333 366.167,82.6667 373,82.5C 380.201,82.503 387.034,83.1697 393.5,84.5 Z"/></g>
<g><path style="opacity:1" fill="#cacaca" d="M 393.5,84.5 C 395.5,84.5 397.5,84.5 399.5,84.5C 401.265,85.4614 403.265,85.7947 405.5,85.5C 405.596,89.3107 406.262,89.3107 407.5,85.5C 409.5,86.8333 411.5,88.1667 413.5,89.5C 415.167,86.8333 416.833,86.8333 418.5,89.5C 420.263,88.0462 421.597,88.3796 422.5,90.5C 418.752,92.0104 419.085,93.1771 423.5,94C 423.221,101.826 423.221,109.993 423.5,118.5C 422.058,116.384 420.058,114.884 417.5,114C 421.5,111.667 421.5,109.333 417.5,107C 416.668,106.312 416.002,106.479 415.5,107.5C 415.723,108.967 416.056,110.467 416.5,112C 416,112.5 415.5,113 415,113.5C 413.54,111.578 411.873,110.911 410,111.5C 410.404,109.421 410.57,107.421 410.5,105.5C 408.845,101.777 407.511,101.777 406.5,105.5C 409.204,110.136 407.87,111.469 402.5,109.5C 403.397,109.331 404.397,108.998 405.5,108.5C 404.975,107.808 404.308,107.308 403.5,107C 404.308,106.692 404.975,106.192 405.5,105.5C 404.185,103.684 402.685,102.017 401,100.5C 400.376,102.464 400.876,104.131 402.5,105.5C 401.418,107.784 399.752,108.95 397.5,109C 401.312,105.7 400.812,102.866 396,100.5C 395.355,101.646 394.522,102.646 393.5,103.5C 394.698,103.94 395.865,104.273 397,104.5C 397.563,105.725 397.23,106.725 396,107.5C 394.278,107.038 392.445,106.872 390.5,107C 391.127,104.657 392.127,102.49 393.5,100.5C 393.167,100.167 392.833,99.8333 392.5,99.5C 391.012,101.149 390.012,103.149 389.5,105.5C 387.289,104.807 386.955,103.641 388.5,102C 387.004,97.5118 385.171,97.3451 383,101.5C 382.019,98.3455 380.685,98.0122 379,100.5C 378.107,99.2888 377.274,99.2888 376.5,100.5C 377.025,101.192 377.692,101.692 378.5,102C 376.726,102.881 376.06,104.047 376.5,105.5C 375.5,105 374.5,104.5 373.5,104C 374.833,102.667 374.833,101.333 373.5,100C 375.654,98.8162 375.32,97.6496 372.5,96.5C 372.306,98.2633 372.306,100.097 372.5,102C 371.953,102.925 371.287,103.758 370.5,104.5C 370.968,102.887 370.301,101.387 368.5,100C 369.821,98.4555 369.488,97.2888 367.5,96.5C 366.912,98.7259 366.578,101.059 366.5,103.5C 364.955,104.452 363.288,104.785 361.5,104.5C 361.329,101.203 361.995,100.869 363.5,103.5C 364.308,103.192 364.975,102.692 365.5,102C 364.685,100.057 363.685,98.057 362.5,96C 361.004,95.4926 359.837,95.9926 359,97.5C 357.201,97.2795 355.368,96.9461 353.5,96.5C 353.693,97.6882 353.193,99.0215 352,100.5C 351.876,98.5743 351.042,96.741 349.5,95C 346.97,94.586 344.303,94.7527 341.5,95.5C 340.719,94.2634 339.719,93.2634 338.5,92.5C 335.695,92.4536 333.028,92.7869 330.5,93.5C 327.234,91.1693 324.4,91.836 322,95.5C 321.586,95.0426 321.086,94.7093 320.5,94.5C 316.982,96.9992 313.316,98.3325 309.5,98.5C 309.5,98.1667 309.5,97.8333 309.5,97.5C 315.02,93.7396 321.02,91.0729 327.5,89.5C 334.595,87.74 341.595,86.0733 348.5,84.5C 348.833,84.5 349.167,84.5 349.5,84.5C 356.829,83.3153 364.162,83.3153 371.5,84.5C 372.498,87.0278 373.331,87.0278 374,84.5C 380.349,84.6158 386.849,84.6158 393.5,84.5 Z"/></g>
<g><path style="opacity:1" fill="#e3e3e3" d="M 418.5,84.5 C 420.861,84.6741 423.194,85.0074 425.5,85.5C 425.831,108.339 425.497,131.006 424.5,153.5C 424.5,131.167 424.5,108.833 424.5,86.5C 421.918,86.9746 419.918,86.3079 418.5,84.5 Z"/></g>
<g><path style="opacity:1" fill="#dfdfdf" d="M 348.5,84.5 C 341.595,86.0733 334.595,87.74 327.5,89.5C 333.854,85.909 340.854,84.2424 348.5,84.5 Z"/></g>
<g><path style="opacity:1" fill="#c3c3c3" d="M 423.5,118.5 C 423.5,129.833 423.5,141.167 423.5,152.5C 419.5,152.5 415.5,152.5 411.5,152.5C 413.185,151.291 414.852,150.291 416.5,149.5C 418.009,151.915 419.676,152.081 421.5,150C 420.359,149.259 420.359,148.425 421.5,147.5C 419.784,147.003 418.117,146.669 416.5,146.5C 415.571,145.311 415.238,143.978 415.5,142.5C 410.825,143.661 408.159,141.994 407.5,137.5C 405.263,138.449 402.929,139.116 400.5,139.5C 400.719,138.325 400.386,137.325 399.5,136.5C 398.576,138.39 397.243,139.89 395.5,141C 395.871,144.557 396.204,148.057 396.5,151.5C 399.149,150.792 401.649,150.792 404,151.5C 404.945,151.095 405.612,150.428 406,149.5C 406.853,151.125 407.853,151.458 409,150.5C 409.464,151.094 409.631,151.761 409.5,152.5C 398.828,152.333 388.161,152.5 377.5,153C 375.292,153.191 373.292,153.691 371.5,154.5C 370.127,154.343 368.793,154.51 367.5,155C 365.111,155.739 363.111,156.905 361.5,158.5C 360.833,158.5 360.167,158.5 359.5,158.5C 359.343,157.127 359.51,155.793 360,154.5C 361.011,155.337 362.178,155.67 363.5,155.5C 363.5,154.5 363.5,153.5 363.5,152.5C 365.06,152.519 366.56,152.852 368,153.5C 370.123,150.788 372.623,150.122 375.5,151.5C 374.911,148.359 374.911,145.359 375.5,142.5C 375.21,140.956 374.544,139.623 373.5,138.5C 374.853,137.476 375.52,136.143 375.5,134.5C 374.5,134.5 373.5,134.5 372.5,134.5C 372.167,138.5 371.833,138.5 371.5,134.5C 369.058,134.646 368.391,133.813 369.5,132C 368.975,131.308 368.308,130.808 367.5,130.5C 366.158,132.005 364.492,132.672 362.5,132.5C 363.833,136.833 363.833,141.167 362.5,145.5C 364.124,145.64 365.29,144.973 366,143.5C 366.483,144.448 366.649,145.448 366.5,146.5C 365.022,146.238 363.689,146.571 362.5,147.5C 362.738,149.565 362.238,151.565 361,153.5C 360.228,152.151 359.061,151.318 357.5,151C 358.448,150.517 359.448,150.351 360.5,150.5C 360.286,148.856 360.62,147.356 361.5,146C 360.833,145.333 360.167,144.667 359.5,144C 360.833,143 360.833,142 359.5,141C 360.211,138.204 360.878,135.37 361.5,132.5C 359.028,131.104 356.362,130.27 353.5,130C 354.902,128.658 354.569,127.824 352.5,127.5C 350.95,128.732 349.283,129.232 347.5,129C 349.125,128.147 349.458,127.147 348.5,126C 346.231,125.242 344.064,125.409 342,126.5C 339.135,124.485 335.968,123.152 332.5,122.5C 332.5,126.5 332.5,130.5 332.5,134.5C 331.448,134.649 330.448,134.483 329.5,134C 329.521,129.498 329.854,124.998 330.5,120.5C 323.304,119.222 316.138,116.889 309,113.5C 306.859,113.023 304.525,113.023 302,113.5C 301.517,112.552 301.351,111.552 301.5,110.5C 299.5,110.5 297.5,110.5 295.5,110.5C 295.815,112.226 295.981,113.893 296,115.5C 295.667,115.833 295.333,116.167 295,116.5C 294.577,115.044 293.744,114.544 292.5,115C 290.18,116.966 288.18,119.133 286.5,121.5C 285.833,121.833 285.167,122.167 284.5,122.5C 285.529,119.109 287.529,116.443 290.5,114.5C 292.587,113.415 293.92,111.749 294.5,109.5C 299.762,106.244 304.762,102.578 309.5,98.5C 313.316,98.3325 316.982,96.9992 320.5,94.5C 321.086,94.7093 321.586,95.0426 322,95.5C 324.4,91.836 327.234,91.1693 330.5,93.5C 333.028,92.7869 335.695,92.4536 338.5,92.5C 339.719,93.2634 340.719,94.2634 341.5,95.5C 344.303,94.7527 346.97,94.586 349.5,95C 351.042,96.741 351.876,98.5743 352,100.5C 353.193,99.0215 353.693,97.6882 353.5,96.5C 355.368,96.9461 357.201,97.2795 359,97.5C 359.837,95.9926 361.004,95.4926 362.5,96C 363.685,98.057 364.685,100.057 365.5,102C 364.975,102.692 364.308,103.192 363.5,103.5C 361.995,100.869 361.329,101.203 361.5,104.5C 363.288,104.785 364.955,104.452 366.5,103.5C 366.578,101.059 366.912,98.7259 367.5,96.5C 369.488,97.2888 369.821,98.4555 368.5,100C 370.301,101.387 370.968,102.887 370.5,104.5C 371.287,103.758 371.953,102.925 372.5,102C 372.306,100.097 372.306,98.2633 372.5,96.5C 375.32,97.6496 375.654,98.8162 373.5,100C 374.833,101.333 374.833,102.667 373.5,104C 374.5,104.5 375.5,105 376.5,105.5C 376.06,104.047 376.726,102.881 378.5,102C 377.692,101.692 377.025,101.192 376.5,100.5C 377.274,99.2888 378.107,99.2888 379,100.5C 380.685,98.0122 382.019,98.3455 383,101.5C 385.171,97.3451 387.004,97.5118 388.5,102C 386.955,103.641 387.289,104.807 389.5,105.5C 390.012,103.149 391.012,101.149 392.5,99.5C 392.833,99.8333 393.167,100.167 393.5,100.5C 392.127,102.49 391.127,104.657 390.5,107C 392.445,106.872 394.278,107.038 396,107.5C 397.23,106.725 397.563,105.725 397,104.5C 395.865,104.273 394.698,103.94 393.5,103.5C 394.522,102.646 395.355,101.646 396,100.5C 400.812,102.866 401.312,105.7 397.5,109C 399.752,108.95 401.418,107.784 402.5,105.5C 400.876,104.131 400.376,102.464 401,100.5C 402.685,102.017 404.185,103.684 405.5,105.5C 404.975,106.192 404.308,106.692 403.5,107C 404.308,107.308 404.975,107.808 405.5,108.5C 404.397,108.998 403.397,109.331 402.5,109.5C 407.87,111.469 409.204,110.136 406.5,105.5C 407.511,101.777 408.845,101.777 410.5,105.5C 410.57,107.421 410.404,109.421 410,111.5C 411.873,110.911 413.54,111.578 415,113.5C 415.5,113 416,112.5 416.5,112C 416.056,110.467 415.723,108.967 415.5,107.5C 416.002,106.479 416.668,106.312 417.5,107C 421.5,109.333 421.5,111.667 417.5,114C 420.058,114.884 422.058,116.384 423.5,118.5 Z"/></g>
<g><path style="opacity:1" fill="#d1d1d1" d="M 399.5,84.5 C 405.833,84.5 412.167,84.5 418.5,84.5C 419.918,86.3079 421.918,86.9746 424.5,86.5C 424.5,108.833 424.5,131.167 424.5,153.5C 408.991,153.17 393.658,153.504 378.5,154.5C 376.167,154.5 373.833,154.5 371.5,154.5C 373.292,153.691 375.292,153.191 377.5,153C 388.161,152.5 398.828,152.333 409.5,152.5C 410.167,152.5 410.833,152.5 411.5,152.5C 415.5,152.5 419.5,152.5 423.5,152.5C 423.5,141.167 423.5,129.833 423.5,118.5C 423.221,109.993 423.221,101.826 423.5,94C 419.085,93.1771 418.752,92.0104 422.5,90.5C 421.597,88.3796 420.263,88.0462 418.5,89.5C 416.833,86.8333 415.167,86.8333 413.5,89.5C 411.5,88.1667 409.5,86.8333 407.5,85.5C 406.262,89.3107 405.596,89.3107 405.5,85.5C 403.265,85.7947 401.265,85.4614 399.5,84.5 Z"/></g>
<g><path style="opacity:1" fill="#dfdfdf" d="M 309.5,97.5 C 309.5,97.8333 309.5,98.1667 309.5,98.5C 304.762,102.578 299.762,106.244 294.5,109.5C 298.948,104.708 303.948,100.708 309.5,97.5 Z"/></g>
<g><path style="opacity:1" fill="#bebebe" d="M 359.5,158.5 C 357.5,158.5 356.5,159.5 356.5,161.5C 355.265,161.721 354.265,162.388 353.5,163.5C 352.158,166.184 350.824,168.851 349.5,171.5C 348.883,171.611 348.383,171.944 348,172.5C 347.823,176.356 347.323,180.023 346.5,183.5C 345.517,187.298 345.183,191.298 345.5,195.5C 343.018,197.456 340.352,197.789 337.5,196.5C 336.494,196.938 336.494,197.604 337.5,198.5C 336.311,199.429 334.978,199.762 333.5,199.5C 333.649,198.448 333.483,197.448 333,196.5C 332.176,197.808 331.676,199.308 331.5,201C 329.702,200.994 328.035,200.661 326.5,200C 326.957,200.414 327.291,200.914 327.5,201.5C 324.084,202.888 321.084,204.888 318.5,207.5C 318.709,208.086 319.043,208.586 319.5,209C 316.333,210.234 313.166,211.401 310,212.5C 308.984,211.366 308.317,211.699 308,213.5C 307.667,213.167 307.333,212.833 307,212.5C 306.1,213.77 304.934,214.77 303.5,215.5C 304.522,216.354 305.355,217.354 306,218.5C 307.481,215.936 308.981,215.936 310.5,218.5C 306.399,219.299 302.399,220.299 298.5,221.5C 298.771,223.821 298.104,225.821 296.5,227.5C 294.713,228.316 293.046,229.316 291.5,230.5C 290.914,230.291 290.414,229.957 290,229.5C 289.837,231.676 289.004,233.509 287.5,235C 283.517,234.725 283.517,235.725 287.5,238C 285.92,241.129 283.586,241.963 280.5,240.5C 280.003,243.932 278.67,246.932 276.5,249.5C 275.261,247.993 275.595,246.826 277.5,246C 275.899,245.727 274.399,245.227 273,244.5C 272.487,246.521 271.32,248.021 269.5,249C 271.651,249.265 273.318,250.265 274.5,252C 272.153,253.581 272.153,254.914 274.5,256C 272.37,257.261 270.203,257.761 268,257.5C 267.667,259.833 267.333,262.167 267,264.5C 266.333,263.833 265.667,263.167 265,262.5C 262.833,266.667 260.667,270.833 258.5,275C 256.887,275.089 255.72,274.255 255,272.5C 251.86,275.727 251.694,279.06 254.5,282.5C 253.675,283.386 252.675,283.719 251.5,283.5C 251.404,279.689 250.738,279.689 249.5,283.5C 248.702,283.043 248.369,282.376 248.5,281.5C 248.461,280.417 248.127,279.417 247.5,278.5C 248.376,277.749 249.376,277.249 250.5,277C 248.842,276.275 248.342,275.108 249,273.5C 251.228,270.516 252.728,267.182 253.5,263.5C 257.311,262.262 257.311,261.596 253.5,261.5C 253.192,259.076 253.526,256.743 254.5,254.5C 255.298,256.078 255.798,257.744 256,259.5C 257.194,257.377 257.86,255.043 258,252.5C 258.862,261.766 260.028,261.766 261.5,252.5C 265.668,249.775 266.335,246.442 263.5,242.5C 264.563,240.634 263.896,240.134 261.5,241C 262.731,242.183 262.731,243.349 261.5,244.5C 260.833,243.167 260.167,241.833 259.5,240.5C 258.808,241.025 258.308,241.692 258,242.5C 257.722,241.584 257.222,240.918 256.5,240.5C 239.167,240.5 221.833,240.5 204.5,240.5C 204.5,264.5 204.5,288.5 204.5,312.5C 204.5,312.833 204.5,313.167 204.5,313.5C 204.167,313.5 203.833,313.5 203.5,313.5C 203.5,288.833 203.5,264.167 203.5,239.5C 225.167,239.5 246.833,239.5 268.5,239.5C 268.833,239.5 269.167,239.5 269.5,239.5C 270.304,237.811 271.304,236.145 272.5,234.5C 271.833,234.167 271.167,233.833 270.5,233.5C 271.836,230.528 273.336,230.195 275,232.5C 275.5,231.333 276.333,230.5 277.5,230C 275.844,228.203 274.844,226.036 274.5,223.5C 276.399,221.169 277.566,218.502 278,215.5C 279.117,216.949 279.784,218.616 280,220.5C 281.455,211.367 282.455,211.367 283,220.5C 284.152,218.351 285.652,216.518 287.5,215C 285.579,213.759 285.246,212.259 286.5,210.5C 288.062,214.393 289.395,214.226 290.5,210C 290.043,209.586 289.709,209.086 289.5,208.5C 289.864,206.267 290.864,204.434 292.5,203C 291.572,202.612 290.905,201.945 290.5,201C 291.591,199.238 292.591,197.404 293.5,195.5C 294.894,197.725 296.06,200.058 297,202.5C 297.11,200.152 298.277,198.652 300.5,198C 299.71,194.242 298.71,190.575 297.5,187C 297.833,185.833 298.167,184.667 298.5,183.5C 299.314,185.766 299.814,188.1 300,190.5C 302.333,186.5 304.667,186.5 307,190.5C 307.5,189.333 308.333,188.5 309.5,188C 307.503,186.847 307.17,185.347 308.5,183.5C 309.192,184.025 309.692,184.692 310,185.5C 310.5,184.333 311.333,183.5 312.5,183C 310.986,181.561 310.653,180.061 311.5,178.5C 312.167,179.5 312.833,180.5 313.5,181.5C 314.768,179.696 315.435,177.696 315.5,175.5C 320.694,175.058 320.694,174.058 315.5,172.5C 317.364,168.08 320.031,164.247 323.5,161C 322.692,160.692 322.025,160.192 321.5,159.5C 322.26,157.596 322.26,155.596 321.5,153.5C 321.667,152.5 321.833,151.5 322,150.5C 322.718,151.451 323.551,151.617 324.5,151C 323.457,149.024 322.123,148.524 320.5,149.5C 319.514,145.625 318.347,145.625 317,149.5C 316.682,147.939 315.849,146.772 314.5,146C 315.167,145.333 315.833,144.667 316.5,144C 314.031,139.699 311.364,135.533 308.5,131.5C 306.435,135.407 304.935,135.074 304,130.5C 301.5,128.667 299.333,126.5 297.5,124C 298.451,123.282 298.617,122.449 298,121.5C 297,122.5 296,123.5 295,124.5C 294.047,122.408 292.714,122.075 291,123.5C 289.951,121.893 288.451,121.227 286.5,121.5C 288.18,119.133 290.18,116.966 292.5,115C 293.744,114.544 294.577,115.044 295,116.5C 295.333,116.167 295.667,115.833 296,115.5C 295.981,113.893 295.815,112.226 295.5,110.5C 297.5,110.5 299.5,110.5 301.5,110.5C 301.351,111.552 301.517,112.552 302,113.5C 304.525,113.023 306.859,113.023 309,113.5C 316.138,116.889 323.304,119.222 330.5,120.5C 329.854,124.998 329.521,129.498 329.5,134C 330.448,134.483 331.448,134.649 332.5,134.5C 332.5,130.5 332.5,126.5 332.5,122.5C 335.968,123.152 339.135,124.485 342,126.5C 344.064,125.409 346.231,125.242 348.5,126C 349.458,127.147 349.125,128.147 347.5,129C 349.283,129.232 350.95,128.732 352.5,127.5C 354.569,127.824 354.902,128.658 353.5,130C 356.362,130.27 359.028,131.104 361.5,132.5C 360.878,135.37 360.211,138.204 359.5,141C 360.833,142 360.833,143 359.5,144C 360.167,144.667 360.833,145.333 361.5,146C 360.62,147.356 360.286,148.856 360.5,150.5C 359.448,150.351 358.448,150.517 357.5,151C 359.061,151.318 360.228,152.151 361,153.5C 362.238,151.565 362.738,149.565 362.5,147.5C 363.689,146.571 365.022,146.238 366.5,146.5C 366.649,145.448 366.483,144.448 366,143.5C 365.29,144.973 364.124,145.64 362.5,145.5C 363.833,141.167 363.833,136.833 362.5,132.5C 364.492,132.672 366.158,132.005 367.5,130.5C 368.308,130.808 368.975,131.308 369.5,132C 368.391,133.813 369.058,134.646 371.5,134.5C 371.833,138.5 372.167,138.5 372.5,134.5C 373.5,134.5 374.5,134.5 375.5,134.5C 375.52,136.143 374.853,137.476 373.5,138.5C 374.544,139.623 375.21,140.956 375.5,142.5C 374.911,145.359 374.911,148.359 375.5,151.5C 372.623,150.122 370.123,150.788 368,153.5C 366.56,152.852 365.06,152.519 363.5,152.5C 363.5,153.5 363.5,154.5 363.5,155.5C 362.178,155.67 361.011,155.337 360,154.5C 359.51,155.793 359.343,157.127 359.5,158.5 Z"/></g>
<g><path style="opacity:1" fill="#e0e0e0" d="M 294.5,109.5 C 293.92,111.749 292.587,113.415 290.5,114.5C 291.08,112.251 292.413,110.585 294.5,109.5 Z"/></g>
<g><path style="opacity:1" fill="#dadada" d="M 284.5,122.5 C 284.002,125.326 282.669,127.66 280.5,129.5C 280.998,126.674 282.331,124.34 284.5,122.5 Z"/></g>
<g><path style="opacity:1" fill="#b9b9b9" d="M 286.5,121.5 C 288.451,121.227 289.951,121.893 291,123.5C 292.714,122.075 294.047,122.408 295,124.5C 296,123.5 297,122.5 298,121.5C 298.617,122.449 298.451,123.282 297.5,124C 299.333,126.5 301.5,128.667 304,130.5C 304.935,135.074 306.435,135.407 308.5,131.5C 311.364,135.533 314.031,139.699 316.5,144C 315.833,144.667 315.167,145.333 314.5,146C 315.849,146.772 316.682,147.939 317,149.5C 318.347,145.625 319.514,145.625 320.5,149.5C 322.123,148.524 323.457,149.024 324.5,151C 323.551,151.617 322.718,151.451 322,150.5C 321.833,151.5 321.667,152.5 321.5,153.5C 322.26,155.596 322.26,157.596 321.5,159.5C 322.025,160.192 322.692,160.692 323.5,161C 320.031,164.247 317.364,168.08 315.5,172.5C 320.694,174.058 320.694,175.058 315.5,175.5C 315.435,177.696 314.768,179.696 313.5,181.5C 312.833,180.5 312.167,179.5 311.5,178.5C 310.653,180.061 310.986,181.561 312.5,183C 311.333,183.5 310.5,184.333 310,185.5C 309.692,184.692 309.192,184.025 308.5,183.5C 307.17,185.347 307.503,186.847 309.5,188C 308.333,188.5 307.5,189.333 307,190.5C 304.667,186.5 302.333,186.5 300,190.5C 299.814,188.1 299.314,185.766 298.5,183.5C 298.167,184.667 297.833,185.833 297.5,187C 298.71,190.575 299.71,194.242 300.5,198C 298.277,198.652 297.11,200.152 297,202.5C 296.06,200.058 294.894,197.725 293.5,195.5C 292.591,197.404 291.591,199.238 290.5,201C 290.905,201.945 291.572,202.612 292.5,203C 290.864,204.434 289.864,206.267 289.5,208.5C 289.709,209.086 290.043,209.586 290.5,210C 289.395,214.226 288.062,214.393 286.5,210.5C 285.246,212.259 285.579,213.759 287.5,215C 285.652,216.518 284.152,218.351 283,220.5C 282.455,211.367 281.455,211.367 280,220.5C 279.784,218.616 279.117,216.949 278,215.5C 277.566,218.502 276.399,221.169 274.5,223.5C 274.844,226.036 275.844,228.203 277.5,230C 276.333,230.5 275.5,231.333 275,232.5C 273.336,230.195 271.836,230.528 270.5,233.5C 271.167,233.833 271.833,234.167 272.5,234.5C 271.304,236.145 270.304,237.811 269.5,239.5C 269.169,216.327 269.502,193.327 270.5,170.5C 270.333,184.837 270.5,199.171 271,213.5C 271.192,211.423 271.692,209.423 272.5,207.5C 274.017,208.911 275.351,208.744 276.5,207C 272.492,206.51 271.825,205.01 274.5,202.5C 275.799,203.09 276.632,204.09 277,205.5C 278.517,204.048 278.684,202.548 277.5,201C 279.145,199.355 280.812,197.688 282.5,196C 280.481,196.152 278.481,196.652 276.5,197.5C 276.5,196.5 276.5,195.5 276.5,194.5C 277.552,194.649 278.552,194.483 279.5,194C 280.833,191.333 282.833,189.333 285.5,188C 285.043,187.586 284.709,187.086 284.5,186.5C 286.865,185.915 288.865,184.748 290.5,183C 287.766,182.282 287.1,180.782 288.5,178.5C 290.599,180.534 292.932,180.868 295.5,179.5C 293.892,178.682 292.225,178.015 290.5,177.5C 289.614,176.675 289.281,175.675 289.5,174.5C 288.5,174.5 287.5,174.5 286.5,174.5C 286.5,173.5 286.5,172.5 286.5,171.5C 288.905,172.687 291.239,174.187 293.5,176C 295.5,176.667 297.5,176.667 299.5,176C 293.771,175.328 293.437,174.328 298.5,173C 296.744,172.798 295.078,172.298 293.5,171.5C 294.25,169.316 294.25,166.983 293.5,164.5C 295.124,164.36 296.29,165.027 297,166.5C 298.487,165.747 298.654,164.914 297.5,164C 292.955,163.388 288.621,162.888 284.5,162.5C 285.685,161.147 287.019,159.98 288.5,159C 288.043,158.586 287.709,158.086 287.5,157.5C 288.833,156.833 290.167,156.167 291.5,155.5C 290.092,154.757 288.759,153.923 287.5,153C 289.589,151.829 291.589,150.496 293.5,149C 291.473,147.121 289.14,145.954 286.5,145.5C 286.5,143.833 286.5,142.167 286.5,140.5C 283.907,140.779 281.907,141.279 280.5,142C 280.043,141.586 279.709,141.086 279.5,140.5C 280.908,139.757 282.241,138.923 283.5,138C 282.354,137.355 281.354,136.522 280.5,135.5C 279.167,137.5 277.833,139.5 276.5,141.5C 277.325,142.386 278.325,142.719 279.5,142.5C 279.528,146.484 277.861,147.484 274.5,145.5C 274.843,147.483 274.176,148.817 272.5,149.5C 272.5,148.5 272.5,147.5 272.5,146.5C 273.151,145.909 273.818,145.243 274.5,144.5C 276.31,140.678 277.643,136.678 278.5,132.5C 279.401,131.71 280.068,130.71 280.5,129.5C 282.669,127.66 284.002,125.326 284.5,122.5C 285.167,122.167 285.833,121.833 286.5,121.5 Z"/></g>
<g><path style="opacity:1" fill="#e8e8e8" d="M 278.5,132.5 C 277.643,136.678 276.31,140.678 274.5,144.5C 273.818,145.243 273.151,145.909 272.5,146.5C 273.562,141.277 275.562,136.611 278.5,132.5 Z"/></g>
<g><path style="opacity:1" fill="#bebebe" d="M 376.5,134.5 C 378.164,135.949 378.998,137.949 379,140.5C 379.202,138.744 379.702,137.078 380.5,135.5C 381.086,135.709 381.586,136.043 382,136.5C 382.71,135.027 383.876,134.36 385.5,134.5C 385.666,139.844 385.499,145.177 385,150.5C 383.984,151.634 383.317,151.301 383,149.5C 382.29,150.973 381.124,151.64 379.5,151.5C 380.568,148.018 380.401,144.685 379,141.5C 378.824,144.882 378.324,148.215 377.5,151.5C 376.505,145.872 376.171,140.206 376.5,134.5 Z"/></g>
<g><path style="opacity:1" fill="#b4b4b4" d="M 270.5,170.5 C 271.249,164.845 271.915,159.178 272.5,153.5C 272.5,152.167 272.5,150.833 272.5,149.5C 274.176,148.817 274.843,147.483 274.5,145.5C 277.861,147.484 279.528,146.484 279.5,142.5C 278.325,142.719 277.325,142.386 276.5,141.5C 277.833,139.5 279.167,137.5 280.5,135.5C 281.354,136.522 282.354,137.355 283.5,138C 282.241,138.923 280.908,139.757 279.5,140.5C 279.709,141.086 280.043,141.586 280.5,142C 281.907,141.279 283.907,140.779 286.5,140.5C 286.5,142.167 286.5,143.833 286.5,145.5C 289.14,145.954 291.473,147.121 293.5,149C 291.589,150.496 289.589,151.829 287.5,153C 288.759,153.923 290.092,154.757 291.5,155.5C 290.167,156.167 288.833,156.833 287.5,157.5C 287.709,158.086 288.043,158.586 288.5,159C 287.019,159.98 285.685,161.147 284.5,162.5C 288.621,162.888 292.955,163.388 297.5,164C 298.654,164.914 298.487,165.747 297,166.5C 296.29,165.027 295.124,164.36 293.5,164.5C 294.25,166.983 294.25,169.316 293.5,171.5C 295.078,172.298 296.744,172.798 298.5,173C 293.437,174.328 293.771,175.328 299.5,176C 297.5,176.667 295.5,176.667 293.5,176C 291.239,174.187 288.905,172.687 286.5,171.5C 286.5,172.5 286.5,173.5 286.5,174.5C 287.5,174.5 288.5,174.5 289.5,174.5C 289.281,175.675 289.614,176.675 290.5,177.5C 292.225,178.015 293.892,178.682 295.5,179.5C 292.932,180.868 290.599,180.534 288.5,178.5C 287.1,180.782 287.766,182.282 290.5,183C 288.865,184.748 286.865,185.915 284.5,186.5C 284.709,187.086 285.043,187.586 285.5,188C 282.833,189.333 280.833,191.333 279.5,194C 278.552,194.483 277.552,194.649 276.5,194.5C 276.5,195.5 276.5,196.5 276.5,197.5C 278.481,196.652 280.481,196.152 282.5,196C 280.812,197.688 279.145,199.355 277.5,201C 278.684,202.548 278.517,204.048 277,205.5C 276.632,204.09 275.799,203.09 274.5,202.5C 271.825,205.01 272.492,206.51 276.5,207C 275.351,208.744 274.017,208.911 272.5,207.5C 271.692,209.423 271.192,211.423 271,213.5C 270.5,199.171 270.333,184.837 270.5,170.5 Z"/></g>
<g><path style="opacity:1" fill="#bebebe" d="M 411.5,152.5 C 410.833,152.5 410.167,152.5 409.5,152.5C 409.631,151.761 409.464,151.094 409,150.5C 407.853,151.458 406.853,151.125 406,149.5C 405.612,150.428 404.945,151.095 404,151.5C 401.649,150.792 399.149,150.792 396.5,151.5C 396.204,148.057 395.871,144.557 395.5,141C 397.243,139.89 398.576,138.39 399.5,136.5C 400.386,137.325 400.719,138.325 400.5,139.5C 402.929,139.116 405.263,138.449 407.5,137.5C 408.159,141.994 410.825,143.661 415.5,142.5C 415.238,143.978 415.571,145.311 416.5,146.5C 418.117,146.669 419.784,147.003 421.5,147.5C 420.359,148.425 420.359,149.259 421.5,150C 419.676,152.081 418.009,151.915 416.5,149.5C 414.852,150.291 413.185,151.291 411.5,152.5 Z"/></g>
<g><path style="opacity:1" fill="#f0f0f0" d="M 272.5,149.5 C 272.5,150.833 272.5,152.167 272.5,153.5C 271.251,156.087 270.251,158.754 269.5,161.5C 268.886,156.968 269.886,152.968 272.5,149.5 Z"/></g>
<g><path style="opacity:1" fill="#e8e8e8" d="M 371.5,154.5 C 373.833,154.5 376.167,154.5 378.5,154.5C 372.84,155.435 367.173,156.769 361.5,158.5C 363.111,156.905 365.111,155.739 367.5,155C 368.793,154.51 370.127,154.343 371.5,154.5 Z"/></g>
<g><path style="opacity:1" fill="#dddddd" d="M 359.5,158.5 C 359.19,160.144 358.19,161.144 356.5,161.5C 356.5,159.5 357.5,158.5 359.5,158.5 Z"/></g>
<g><path style="opacity:1" fill="#cdcdcd" d="M 272.5,153.5 C 271.915,159.178 271.249,164.845 270.5,170.5C 269.502,193.327 269.169,216.327 269.5,239.5C 269.167,239.5 268.833,239.5 268.5,239.5C 268.5,217.5 268.5,195.5 268.5,173.5C 268.183,169.298 268.517,165.298 269.5,161.5C 270.251,158.754 271.251,156.087 272.5,153.5 Z"/></g>
<g><path style="opacity:1" fill="#efefef" d="M 349.5,171.5 C 348.521,193.788 348.188,216.121 348.5,238.5C 373.006,238.169 397.339,238.502 421.5,239.5C 396.831,239.667 372.164,239.5 347.5,239C 346.507,220.576 346.174,202.076 346.5,183.5C 347.323,180.023 347.823,176.356 348,172.5C 348.383,171.944 348.883,171.611 349.5,171.5 Z"/></g>
<g><path style="opacity:1" fill="#c3c3c3" d="M 345.5,195.5 C 345.176,210.412 345.509,225.245 346.5,240C 363.163,240.5 379.83,240.667 396.5,240.5C 395.498,242.011 394.831,243.678 394.5,245.5C 398.996,246.461 399.663,248.794 396.5,252.5C 396.003,250.784 395.669,249.117 395.5,247.5C 394.167,248.167 393.167,249.167 392.5,250.5C 394.229,252.851 394.896,255.518 394.5,258.5C 395.822,258.67 396.989,258.337 398,257.5C 396.874,259.95 397.541,261.95 400,263.5C 400.741,266.562 400.575,269.562 399.5,272.5C 400.376,273.251 401.376,273.751 402.5,274C 401.692,274.308 401.025,274.808 400.5,275.5C 402.687,277.567 405.021,279.4 407.5,281C 407.043,281.414 406.709,281.914 406.5,282.5C 408.421,283.324 409.754,284.657 410.5,286.5C 411.833,286.5 413.167,286.5 414.5,286.5C 414.495,290.534 414.162,294.534 413.5,298.5C 413.5,300.833 413.5,303.167 413.5,305.5C 411.631,307.635 410.964,310.302 411.5,313.5C 400.5,313.5 389.5,313.5 378.5,313.5C 378.371,307.619 376.038,302.786 371.5,299C 372.783,297.864 373.783,296.531 374.5,295C 374.455,291.233 373.788,287.4 372.5,283.5C 369.151,284.83 368.818,284.33 371.5,282C 368.833,281 368.833,280 371.5,279C 369.774,276.659 368.274,274.159 367,271.5C 365.69,273.132 365.19,274.799 365.5,276.5C 364.124,275.158 362.791,273.825 361.5,272.5C 362.274,271.289 363.107,271.289 364,272.5C 367.094,269.79 366.594,268.79 362.5,269.5C 361.65,266.739 362.65,266.072 365.5,267.5C 366.627,265.731 366.127,264.397 364,263.5C 361.909,264.5 360.243,263.833 359,261.5C 358.107,262.711 357.274,262.711 356.5,261.5C 358.553,259.064 360.386,259.398 362,262.5C 362.667,261.5 362.667,260.5 362,259.5C 360.26,258.284 359.26,256.618 359,254.5C 357.801,251.793 355.967,251.126 353.5,252.5C 350.766,248.594 347.1,246.094 342.5,245C 343.167,244.667 343.833,244.333 344.5,244C 343.107,242.829 342.273,241.329 342,239.5C 341.13,240.108 340.63,240.941 340.5,242C 340.718,243.891 340.718,245.724 340.5,247.5C 338.02,246.585 337.353,245.085 338.5,243C 336.983,241.315 335.316,239.815 333.5,238.5C 330.833,240.5 328.5,242.833 326.5,245.5C 328.277,246.901 329.944,248.401 331.5,250C 330.24,251.113 329.073,251.28 328,250.5C 327.261,251.574 326.261,252.241 325,252.5C 323.806,250.976 322.306,249.81 320.5,249C 322.351,247.316 324.018,245.483 325.5,243.5C 325.192,242.692 324.692,242.025 324,241.5C 322.859,243.609 321.359,245.442 319.5,247C 318.551,247.617 317.718,247.451 317,246.5C 314.015,249.381 314.681,250.381 319,249.5C 320.23,250.275 320.563,251.275 320,252.5C 318.575,251.788 317.075,251.621 315.5,252C 313.599,249.387 311.265,247.72 308.5,247C 316.745,253.684 315.745,257.017 305.5,257C 304.289,256.107 304.289,255.274 305.5,254.5C 306.967,254.723 308.467,255.056 310,255.5C 310.75,254.874 311.584,254.374 312.5,254C 311.333,253.5 310.5,252.667 310,251.5C 309.586,251.957 309.086,252.291 308.5,252.5C 308.467,251.011 307.967,249.678 307,248.5C 303.903,249.289 303.736,250.456 306.5,252C 304.793,252.195 303.126,252.195 301.5,252C 301.833,253.667 302.167,255.333 302.5,257C 299.779,258.651 299.446,260.318 301.5,262C 298.906,262.449 296.906,261.449 295.5,259C 296.572,257.716 297.905,257.383 299.5,258C 299.616,256.732 299.949,255.398 300.5,254C 298.233,252.392 297.233,253.225 297.5,256.5C 296.5,256.5 295.5,256.5 294.5,256.5C 293.484,260.339 291.15,263.172 287.5,265C 288.167,265.667 288.833,266.333 289.5,267C 287.773,268.389 286.439,270.056 285.5,272C 286.615,273.393 287.115,274.893 287,276.5C 284.333,278.5 282,280.833 280,283.5C 278.649,281.981 277.149,280.648 275.5,279.5C 275.167,279.833 274.833,280.167 274.5,280.5C 275.263,281.719 276.263,282.719 277.5,283.5C 276.5,284.833 275.5,286.167 274.5,287.5C 275.919,289.127 275.586,289.627 273.5,289C 272.953,288.075 272.287,287.242 271.5,286.5C 270.378,288.044 270.711,289.377 272.5,290.5C 269.193,293.623 266.527,297.123 264.5,301C 264.957,301.414 265.291,301.914 265.5,302.5C 264.289,303.874 263.289,305.374 262.5,307C 262.667,307.5 262.833,308 263,308.5C 263.535,306.729 264.369,306.396 265.5,307.5C 264.651,309.51 265.318,311.177 267.5,312.5C 254.949,313.105 242.283,313.438 229.5,313.5C 229.281,312.325 229.614,311.325 230.5,310.5C 232.523,312.173 234.856,312.84 237.5,312.5C 237.67,311.178 237.337,310.011 236.5,309C 238.329,308.727 239.829,307.893 241,306.5C 241.308,307.308 241.808,307.975 242.5,308.5C 243.833,305.5 243.833,302.5 242.5,299.5C 241.914,299.709 241.414,300.043 241,300.5C 240.118,296.973 240.618,296.307 242.5,298.5C 244.003,297.948 245.669,297.948 247.5,298.5C 247.297,296.61 247.963,295.11 249.5,294C 248.975,293.308 248.308,292.808 247.5,292.5C 243.468,298.051 242.801,297.718 245.5,291.5C 245.182,290.353 244.516,289.519 243.5,289C 246.167,287.333 246.167,285.667 243.5,284C 245.249,283.215 246.916,282.382 248.5,281.5C 248.369,282.376 248.702,283.043 249.5,283.5C 250.738,279.689 251.404,279.689 251.5,283.5C 252.675,283.719 253.675,283.386 254.5,282.5C 251.694,279.06 251.86,275.727 255,272.5C 255.72,274.255 256.887,275.089 258.5,275C 260.667,270.833 262.833,266.667 265,262.5C 265.667,263.167 266.333,263.833 267,264.5C 267.333,262.167 267.667,259.833 268,257.5C 270.203,257.761 272.37,257.261 274.5,256C 272.153,254.914 272.153,253.581 274.5,252C 273.318,250.265 271.651,249.265 269.5,249C 271.32,248.021 272.487,246.521 273,244.5C 274.399,245.227 275.899,245.727 277.5,246C 275.595,246.826 275.261,247.993 276.5,249.5C 278.67,246.932 280.003,243.932 280.5,240.5C 283.586,241.963 285.92,241.129 287.5,238C 283.517,235.725 283.517,234.725 287.5,235C 289.004,233.509 289.837,231.676 290,229.5C 290.414,229.957 290.914,230.291 291.5,230.5C 293.046,229.316 294.713,228.316 296.5,227.5C 298.104,225.821 298.771,223.821 298.5,221.5C 302.399,220.299 306.399,219.299 310.5,218.5C 308.981,215.936 307.481,215.936 306,218.5C 305.355,217.354 304.522,216.354 303.5,215.5C 304.934,214.77 306.1,213.77 307,212.5C 307.333,212.833 307.667,213.167 308,213.5C 308.317,211.699 308.984,211.366 310,212.5C 313.166,211.401 316.333,210.234 319.5,209C 319.043,208.586 318.709,208.086 318.5,207.5C 321.084,204.888 324.084,202.888 327.5,201.5C 327.291,200.914 326.957,200.414 326.5,200C 328.035,200.661 329.702,200.994 331.5,201C 331.676,199.308 332.176,197.808 333,196.5C 333.483,197.448 333.649,198.448 333.5,199.5C 334.978,199.762 336.311,199.429 337.5,198.5C 336.494,197.604 336.494,196.938 337.5,196.5C 340.352,197.789 343.018,197.456 345.5,195.5 Z"/></g>
<g><path style="opacity:1" fill="#e5e5e5" d="M 268.5,173.5 C 268.5,195.5 268.5,217.5 268.5,239.5C 246.833,239.5 225.167,239.5 203.5,239.5C 224.66,238.503 245.993,238.169 267.5,238.5C 267.169,216.66 267.503,194.994 268.5,173.5 Z"/></g>
<g><path style="opacity:1" fill="#cacaca" d="M 413.5,305.5 C 413.785,308.829 413.118,311.829 411.5,314.5C 389.833,314.5 368.167,314.5 346.5,314.5C 346.5,379.167 346.5,443.833 346.5,508.5C 346.167,508.5 345.833,508.5 345.5,508.5C 345.667,473.832 345.5,439.165 345,404.5C 341.119,407.214 340.619,410.048 343.5,413C 342.366,414.016 342.699,414.683 344.5,415C 341.997,416.784 341.997,418.451 344.5,420C 343.552,420.483 342.552,420.649 341.5,420.5C 341.64,418.876 340.973,417.71 339.5,417C 341.902,415.529 341.736,414.029 339,412.5C 336.904,413.715 337.071,414.549 339.5,415C 338.833,415.667 338.167,416.333 337.5,417C 340.233,419.917 341.067,423.084 340,426.5C 338.865,426.727 337.698,427.06 336.5,427.5C 337.326,428.451 337.492,429.451 337,430.5C 335.833,429.333 334.667,428.167 333.5,427C 334.167,426.333 334.833,425.667 335.5,425C 334.069,424.535 332.903,423.701 332,422.5C 331.508,423.549 331.674,424.549 332.5,425.5C 329.972,426.517 329.972,427.684 332.5,429C 330.071,429.451 329.904,430.285 332,431.5C 334.333,430.167 335.333,430.833 335,433.5C 333.853,432.542 332.853,432.875 332,434.5C 330.266,431.966 328.1,430.466 325.5,430C 327.335,430.928 327.668,432.094 326.5,433.5C 325.284,434.096 323.951,434.263 322.5,434C 324,435.5 325.5,437 327,438.5C 327.617,437.551 327.451,436.718 326.5,436C 327.333,435.167 328.167,434.333 329,433.5C 330.037,435.218 330.537,437.051 330.5,439C 329.874,439.75 329.374,440.584 329,441.5C 328.035,439.74 326.868,439.406 325.5,440.5C 324.289,441.72 324.289,442.887 325.5,444C 324.167,445.333 322.833,446.667 321.5,448C 322.5,448.333 323.5,448.667 324.5,449C 323.354,449.645 322.354,450.478 321.5,451.5C 321.167,450.5 320.833,449.5 320.5,448.5C 321.941,445.848 322.608,443.181 322.5,440.5C 319.833,439.167 317.167,439.167 314.5,440.5C 314.745,442.745 314.745,445.078 314.5,447.5C 316.372,449.535 318.039,451.702 319.5,454C 318.163,456.333 316.33,458.167 314,459.5C 313.167,458.667 312.333,457.833 311.5,457C 312.451,456.282 312.617,455.449 312,454.5C 311,455.833 310,455.833 309,454.5C 307.015,456.235 307.349,457.568 310,458.5C 310.667,459.5 310.667,460.5 310,461.5C 308.318,459.279 306.485,458.112 304.5,458C 305.573,456.584 305.573,455.25 304.5,454C 305.949,452.883 307.616,452.216 309.5,452C 308.667,451.167 307.833,450.333 307,449.5C 305.981,450.687 304.814,451.687 303.5,452.5C 301.574,451.939 299.574,451.773 297.5,452C 301.041,450.929 301.708,449.263 299.5,447C 300.5,446.5 301.5,446 302.5,445.5C 302.807,450.646 304.474,450.646 307.5,445.5C 306.011,445.467 304.678,444.967 303.5,444C 304.126,443.25 304.626,442.416 305,441.5C 305.535,443.271 306.369,443.604 307.5,442.5C 306.167,441.167 306.167,439.833 307.5,438.5C 306.687,437.186 305.687,436.019 304.5,435C 304.833,434.667 305.167,434.333 305.5,434C 303.833,433.333 302.167,433.333 300.5,434C 302.167,435.667 303.833,437.333 305.5,439C 303.317,441.35 300.984,443.517 298.5,445.5C 296.865,444.67 295.198,444.503 293.5,445C 294.667,443.833 295.833,442.667 297,441.5C 297.333,442.167 297.667,442.833 298,443.5C 304.167,440 304,436.833 297.5,434C 299.931,432.271 299.597,430.771 296.5,429.5C 296.575,431.796 296.575,434.463 296.5,437.5C 297.552,437.351 298.552,437.517 299.5,438C 300.833,438.667 300.833,439.333 299.5,440C 297.14,439.328 295.14,440.161 293.5,442.5C 292.28,441.289 291.113,441.289 290,442.5C 289.316,441.216 289.483,440.049 290.5,439C 291.833,439 293.167,439 294.5,439C 292.343,437.915 292.176,436.749 294,435.5C 294.015,433.209 294.182,431.042 294.5,429C 292.981,427.649 291.648,426.149 290.5,424.5C 290.888,426.359 290.888,428.359 290.5,430.5C 291.025,431.192 291.692,431.692 292.5,432C 291.692,432.308 291.025,432.808 290.5,433.5C 291.326,434.451 291.492,435.451 291,436.5C 286.91,440.707 286.077,440.374 288.5,435.5C 280.742,433.205 280.742,430.039 288.5,426C 286.606,424.921 286.273,423.587 287.5,422C 286.551,421.383 285.718,421.549 285,422.5C 283.691,420.109 282.691,420.109 282,422.5C 281.586,422.043 281.086,421.709 280.5,421.5C 279.289,422.274 279.289,423.107 280.5,424C 282.279,423.021 283.945,423.354 285.5,425C 283.978,427.848 281.978,428.181 279.5,426C 277.583,422.834 275.917,419.5 274.5,416C 275.452,414.7 275.452,413.533 274.5,412.5C 273.808,413.025 273.308,413.692 273,414.5C 272,412.167 271,409.833 270,407.5C 269.5,441.165 269.333,474.832 269.5,508.5C 269.167,508.5 268.833,508.5 268.5,508.5C 268.5,443.833 268.5,379.167 268.5,314.5C 246.66,314.831 224.994,314.497 203.5,313.5C 203.833,313.5 204.167,313.5 204.5,313.5C 212.833,313.5 221.167,313.5 229.5,313.5C 242.283,313.438 254.949,313.105 267.5,312.5C 265.318,311.177 264.651,309.51 265.5,307.5C 264.369,306.396 263.535,306.729 263,308.5C 262.833,308 262.667,307.5 262.5,307C 263.289,305.374 264.289,303.874 265.5,302.5C 265.291,301.914 264.957,301.414 264.5,301C 266.527,297.123 269.193,293.623 272.5,290.5C 270.711,289.377 270.378,288.044 271.5,286.5C 272.287,287.242 272.953,288.075 273.5,289C 275.586,289.627 275.919,289.127 274.5,287.5C 275.5,286.167 276.5,284.833 277.5,283.5C 276.263,282.719 275.263,281.719 274.5,280.5C 274.833,280.167 275.167,279.833 275.5,279.5C 277.149,280.648 278.649,281.981 280,283.5C 282,280.833 284.333,278.5 287,276.5C 287.115,274.893 286.615,273.393 285.5,272C 286.439,270.056 287.773,268.389 289.5,267C 288.833,266.333 288.167,265.667 287.5,265C 291.15,263.172 293.484,260.339 294.5,256.5C 295.5,256.5 296.5,256.5 297.5,256.5C 297.233,253.225 298.233,252.392 300.5,254C 299.949,255.398 299.616,256.732 299.5,258C 297.905,257.383 296.572,257.716 295.5,259C 296.906,261.449 298.906,262.449 301.5,262C 299.446,260.318 299.779,258.651 302.5,257C 302.167,255.333 301.833,253.667 301.5,252C 303.126,252.195 304.793,252.195 306.5,252C 303.736,250.456 303.903,249.289 307,248.5C 307.967,249.678 308.467,251.011 308.5,252.5C 309.086,252.291 309.586,251.957 310,251.5C 310.5,252.667 311.333,253.5 312.5,254C 311.584,254.374 310.75,254.874 310,255.5C 308.467,255.056 306.967,254.723 305.5,254.5C 304.289,255.274 304.289,256.107 305.5,257C 315.745,257.017 316.745,253.684 308.5,247C 311.265,247.72 313.599,249.387 315.5,252C 317.075,251.621 318.575,251.788 320,252.5C 320.563,251.275 320.23,250.275 319,249.5C 314.681,250.381 314.015,249.381 317,246.5C 317.718,247.451 318.551,247.617 319.5,247C 321.359,245.442 322.859,243.609 324,241.5C 324.692,242.025 325.192,242.692 325.5,243.5C 324.018,245.483 322.351,247.316 320.5,249C 322.306,249.81 323.806,250.976 325,252.5C 326.261,252.241 327.261,251.574 328,250.5C 329.073,251.28 330.24,251.113 331.5,250C 329.944,248.401 328.277,246.901 326.5,245.5C 328.5,242.833 330.833,240.5 333.5,238.5C 335.316,239.815 336.983,241.315 338.5,243C 337.353,245.085 338.02,246.585 340.5,247.5C 340.718,245.724 340.718,243.891 340.5,242C 340.63,240.941 341.13,240.108 342,239.5C 342.273,241.329 343.107,242.829 344.5,244C 343.833,244.333 343.167,244.667 342.5,245C 347.1,246.094 350.766,248.594 353.5,252.5C 355.967,251.126 357.801,251.793 359,254.5C 359.26,256.618 360.26,258.284 362,259.5C 362.667,260.5 362.667,261.5 362,262.5C 360.386,259.398 358.553,259.064 356.5,261.5C 357.274,262.711 358.107,262.711 359,261.5C 360.243,263.833 361.909,264.5 364,263.5C 366.127,264.397 366.627,265.731 365.5,267.5C 362.65,266.072 361.65,266.739 362.5,269.5C 366.594,268.79 367.094,269.79 364,272.5C 363.107,271.289 362.274,271.289 361.5,272.5C 362.791,273.825 364.124,275.158 365.5,276.5C 365.19,274.799 365.69,273.132 367,271.5C 368.274,274.159 369.774,276.659 371.5,279C 368.833,280 368.833,281 371.5,282C 368.818,284.33 369.151,284.83 372.5,283.5C 373.788,287.4 374.455,291.233 374.5,295C 373.783,296.531 372.783,297.864 371.5,299C 376.038,302.786 378.371,307.619 378.5,313.5C 389.5,313.5 400.5,313.5 411.5,313.5C 410.964,310.302 411.631,307.635 413.5,305.5 Z"/></g>
<g><path style="opacity:1" fill="#ececec" d="M 203.5,239.5 C 203.5,264.167 203.5,288.833 203.5,313.5C 224.994,314.497 246.66,314.831 268.5,314.5C 268.5,379.167 268.5,443.833 268.5,508.5C 268.167,508.5 267.833,508.5 267.5,508.5C 267.5,444.167 267.5,379.833 267.5,315.5C 245.5,315.5 223.5,315.5 201.5,315.5C 200.843,289.811 201.509,264.478 203.5,239.5 Z"/></g>
<g><path style="opacity:1" fill="#cdcdcd" d="M 346.5,183.5 C 346.174,202.076 346.507,220.576 347.5,239C 372.164,239.5 396.831,239.667 421.5,239.5C 421.073,243.824 420.739,248.158 420.5,252.5C 420.167,252.5 419.833,252.5 419.5,252.5C 419.207,248.563 419.54,244.73 420.5,241C 412.507,240.5 404.507,240.334 396.5,240.5C 379.83,240.667 363.163,240.5 346.5,240C 345.509,225.245 345.176,210.412 345.5,195.5C 345.183,191.298 345.517,187.298 346.5,183.5 Z"/></g>
<g><path style="opacity:1" fill="#b4b4b4" d="M 256.5,240.5 C 255.192,241.232 253.858,242.066 252.5,243C 252.957,243.414 253.291,243.914 253.5,244.5C 251.984,246.391 250.65,248.391 249.5,250.5C 248.761,256.268 247.595,261.935 246,267.5C 246.162,263.492 246.662,259.492 247.5,255.5C 246.5,255.5 245.5,255.5 244.5,255.5C 244.33,256.822 244.663,257.989 245.5,259C 242.79,263.745 240.457,268.745 238.5,274C 237.347,275.654 236.013,277.154 234.5,278.5C 235.478,279.801 235.145,280.968 233.5,282C 234.384,283.098 235.384,283.598 236.5,283.5C 234.833,284.167 233.167,284.833 231.5,285.5C 232.729,286.281 234.062,286.781 235.5,287C 234.151,287.772 233.318,288.939 233,290.5C 231.844,289.007 231.01,289.174 230.5,291C 229.833,293 229.167,295 228.5,297C 228.905,297.945 229.572,298.612 230.5,299C 228.139,299.197 226.472,300.364 225.5,302.5C 224.708,305.973 223.708,309.306 222.5,312.5C 216.34,312.219 210.34,312.219 204.5,312.5C 204.5,288.5 204.5,264.5 204.5,240.5C 221.833,240.5 239.167,240.5 256.5,240.5 Z"/></g>
<g><path style="opacity:1" fill="#bebebe" d="M 396.5,240.5 C 404.507,240.334 412.507,240.5 420.5,241C 419.54,244.73 419.207,248.563 419.5,252.5C 418.523,255.287 418.19,258.287 418.5,261.5C 417.953,263.518 416.953,265.351 415.5,267C 416.46,270.73 416.793,274.563 416.5,278.5C 415.539,280.265 415.205,282.265 415.5,284.5C 414.662,284.842 414.328,285.508 414.5,286.5C 413.167,286.5 411.833,286.5 410.5,286.5C 409.754,284.657 408.421,283.324 406.5,282.5C 406.709,281.914 407.043,281.414 407.5,281C 405.021,279.4 402.687,277.567 400.5,275.5C 401.025,274.808 401.692,274.308 402.5,274C 401.376,273.751 400.376,273.251 399.5,272.5C 400.575,269.562 400.741,266.562 400,263.5C 397.541,261.95 396.874,259.95 398,257.5C 396.989,258.337 395.822,258.67 394.5,258.5C 394.896,255.518 394.229,252.851 392.5,250.5C 393.167,249.167 394.167,248.167 395.5,247.5C 395.669,249.117 396.003,250.784 396.5,252.5C 399.663,248.794 398.996,246.461 394.5,245.5C 394.831,243.678 395.498,242.011 396.5,240.5 Z"/></g>
<g><path style="opacity:1" fill="#dbdbdb" d="M 419.5,252.5 C 419.833,252.5 420.167,252.5 420.5,252.5C 420.448,256.198 420.114,259.865 419.5,263.5C 419.167,263.5 418.833,263.5 418.5,263.5C 418.5,262.833 418.5,262.167 418.5,261.5C 418.19,258.287 418.523,255.287 419.5,252.5 Z"/></g>
<g><path style="opacity:1" fill="#cccccc" d="M 418.5,261.5 C 418.5,262.167 418.5,262.833 418.5,263.5C 417.8,267.798 417.467,272.131 417.5,276.5C 417.5,277.167 417.5,277.833 417.5,278.5C 417.167,278.5 416.833,278.5 416.5,278.5C 416.793,274.563 416.46,270.73 415.5,267C 416.953,265.351 417.953,263.518 418.5,261.5 Z"/></g>
<g><path style="opacity:1" fill="#ebebeb" d="M 418.5,263.5 C 418.833,263.5 419.167,263.5 419.5,263.5C 419.665,266.85 419.498,270.183 419,273.5C 418.768,274.737 418.268,275.737 417.5,276.5C 417.467,272.131 417.8,267.798 418.5,263.5 Z"/></g>
<g><path style="opacity:1" fill="#e0e0e0" d="M 416.5,278.5 C 416.833,278.5 417.167,278.5 417.5,278.5C 417.975,281.082 417.308,283.082 415.5,284.5C 415.205,282.265 415.539,280.265 416.5,278.5 Z"/></g>
<g><path style="opacity:1" fill="#b9b9b9" d="M 256.5,240.5 C 257.222,240.918 257.722,241.584 258,242.5C 258.308,241.692 258.808,241.025 259.5,240.5C 260.167,241.833 260.833,243.167 261.5,244.5C 262.731,243.349 262.731,242.183 261.5,241C 263.896,240.134 264.563,240.634 263.5,242.5C 266.335,246.442 265.668,249.775 261.5,252.5C 260.028,261.766 258.862,261.766 258,252.5C 257.86,255.043 257.194,257.377 256,259.5C 255.798,257.744 255.298,256.078 254.5,254.5C 253.526,256.743 253.192,259.076 253.5,261.5C 257.311,261.596 257.311,262.262 253.5,263.5C 252.728,267.182 251.228,270.516 249,273.5C 248.342,275.108 248.842,276.275 250.5,277C 249.376,277.249 248.376,277.749 247.5,278.5C 248.127,279.417 248.461,280.417 248.5,281.5C 246.916,282.382 245.249,283.215 243.5,284C 246.167,285.667 246.167,287.333 243.5,289C 244.516,289.519 245.182,290.353 245.5,291.5C 242.801,297.718 243.468,298.051 247.5,292.5C 248.308,292.808 248.975,293.308 249.5,294C 247.963,295.11 247.297,296.61 247.5,298.5C 245.669,297.948 244.003,297.948 242.5,298.5C 240.618,296.307 240.118,296.973 241,300.5C 241.414,300.043 241.914,299.709 242.5,299.5C 243.833,302.5 243.833,305.5 242.5,308.5C 241.808,307.975 241.308,307.308 241,306.5C 239.829,307.893 238.329,308.727 236.5,309C 237.337,310.011 237.67,311.178 237.5,312.5C 234.856,312.84 232.523,312.173 230.5,310.5C 229.614,311.325 229.281,312.325 229.5,313.5C 221.167,313.5 212.833,313.5 204.5,313.5C 204.5,313.167 204.5,312.833 204.5,312.5C 210.34,312.219 216.34,312.219 222.5,312.5C 223.708,309.306 224.708,305.973 225.5,302.5C 226.472,300.364 228.139,299.197 230.5,299C 229.572,298.612 228.905,297.945 228.5,297C 229.167,295 229.833,293 230.5,291C 231.01,289.174 231.844,289.007 233,290.5C 233.318,288.939 234.151,287.772 235.5,287C 234.062,286.781 232.729,286.281 231.5,285.5C 233.167,284.833 234.833,284.167 236.5,283.5C 235.384,283.598 234.384,283.098 233.5,282C 235.145,280.968 235.478,279.801 234.5,278.5C 236.013,277.154 237.347,275.654 238.5,274C 240.457,268.745 242.79,263.745 245.5,259C 244.663,257.989 244.33,256.822 244.5,255.5C 245.5,255.5 246.5,255.5 247.5,255.5C 246.662,259.492 246.162,263.492 246,267.5C 247.595,261.935 248.761,256.268 249.5,250.5C 250.65,248.391 251.984,246.391 253.5,244.5C 253.291,243.914 252.957,243.414 252.5,243C 253.858,242.066 255.192,241.232 256.5,240.5 Z"/></g>
<g><path style="opacity:1" fill="#bebebe" d="M 410.5,286.5 C 410.119,287.931 409.119,288.764 407.5,289C 411.5,290 411.5,291 407.5,292C 408.448,292.483 409.448,292.649 410.5,292.5C 410.693,295.308 411.36,297.975 412.5,300.5C 411.325,300.281 410.325,300.614 409.5,301.5C 409.529,304.492 409.862,307.492 410.5,310.5C 409.209,311.778 407.209,312.445 404.5,312.5C 404.665,310.173 405.331,308.007 406.5,306C 405.572,305.612 404.905,304.945 404.5,304C 405.112,301.942 406.112,300.109 407.5,298.5C 405.883,298.331 404.216,297.997 402.5,297.5C 404.229,296.403 405.896,295.237 407.5,294C 401.688,289.254 402.688,286.754 410.5,286.5 Z"/></g>
<g><path style="opacity:1" fill="#d9d9d9" d="M 415.5,284.5 C 415.819,289.363 415.486,294.03 414.5,298.5C 414.167,298.5 413.833,298.5 413.5,298.5C 414.162,294.534 414.495,290.534 414.5,286.5C 414.328,285.508 414.662,284.842 415.5,284.5 Z"/></g>
<g><path style="opacity:1" fill="#cfcfcf" d="M 304.5,298.5 C 305.239,298.369 305.906,298.536 306.5,299C 306.184,301.961 305.85,305.128 305.5,308.5C 313.043,307.703 320.71,307.87 328.5,309C 327.234,309.309 326.067,309.809 325,310.5C 318.33,310.813 311.83,310.479 305.5,309.5C 306.783,312.49 306.783,315.156 305.5,317.5C 307.574,319.828 308.574,319.161 308.5,315.5C 313.099,315.8 317.599,315.467 322,314.5C 325.097,315.289 325.264,316.456 322.5,318C 323.993,319.368 325.493,319.535 327,318.5C 327.199,320.402 328.033,321.902 329.5,323C 329.043,323.414 328.709,323.914 328.5,324.5C 330.078,325.298 331.744,325.798 333.5,326C 331.393,328.506 330.56,331.339 331,334.5C 332.067,335.191 333.234,335.691 334.5,336C 333.234,336.309 332.067,336.809 331,337.5C 330.866,340.288 331.199,342.955 332,345.5C 330.703,344.216 329.536,344.383 328.5,346C 328.721,347.799 329.054,349.632 329.5,351.5C 328.316,353.046 327.316,354.713 326.5,356.5C 325.476,357.853 324.143,358.52 322.5,358.5C 321.664,361.187 320.164,363.52 318,365.5C 316.235,366.239 314.235,366.239 312,365.5C 311.333,366.167 310.667,366.833 310,367.5C 308.301,366.594 306.467,366.261 304.5,366.5C 304.5,365.5 304.5,364.5 304.5,363.5C 301.813,362.664 299.48,361.164 297.5,359C 298.833,358 298.833,357 297.5,356C 298.167,355.333 298.833,354.667 299.5,354C 297.888,353.28 296.388,353.446 295,354.5C 294.807,349.25 294.307,344.083 293.5,339C 294.483,335.505 296.15,332.338 298.5,329.5C 298.291,328.914 297.957,328.414 297.5,328C 299.107,326.595 300.44,324.928 301.5,323C 301.355,322.228 301.022,321.561 300.5,321C 301.793,320.51 303.127,320.343 304.5,320.5C 304.799,318.396 304.466,316.396 303.5,314.5C 302.402,315.615 301.235,315.615 300,314.5C 298.668,316.936 297.501,316.936 296.5,314.5C 299.086,313.52 301.753,313.187 304.5,313.5C 304.5,310.5 304.5,307.5 304.5,304.5C 296.606,304.473 296.606,303.807 304.5,302.5C 303.397,302.002 302.397,301.669 301.5,301.5C 302.993,300.859 303.993,299.859 304.5,298.5 Z"/></g>
<g><path style="opacity:1" fill="#efefef" d="M 413.5,298.5 C 413.833,298.5 414.167,298.5 414.5,298.5C 414.666,303.179 414.499,307.845 414,312.5C 413.764,314.119 412.931,315.119 411.5,315.5C 411.5,315.167 411.5,314.833 411.5,314.5C 413.118,311.829 413.785,308.829 413.5,305.5C 413.5,303.167 413.5,300.833 413.5,298.5 Z"/></g>
<g><path style="opacity:1" fill="#f8f8f8" d="M -0.5,321.5 C 0.17898,376.36 0.845647,431.36 1.5,486.5C 0.833333,486.5 0.166667,486.5 -0.5,486.5C -0.5,431.5 -0.5,376.5 -0.5,321.5 Z"/></g>
<g><path style="opacity:1" fill="#c4c4c4" d="M 345.5,508.5 C 342.5,508.5 339.5,508.5 336.5,508.5C 336.859,506.629 337.859,505.129 339.5,504C 336.974,503.824 335.141,504.99 334,507.5C 333.5,507 333,506.5 332.5,506C 334.607,504.736 335.607,502.903 335.5,500.5C 333.876,500.64 332.71,499.973 332,498.5C 331.692,499.308 331.192,499.975 330.5,500.5C 329.41,499.609 329.41,498.609 330.5,497.5C 329.349,496.269 328.183,496.269 327,497.5C 325.176,496.251 325.343,495.085 327.5,494C 325.868,492.69 324.201,492.19 322.5,492.5C 323.48,490.392 323.146,488.392 321.5,486.5C 320.289,487.274 320.289,488.107 321.5,489C 318.833,490.333 318.833,491.667 321.5,493C 319.609,493.309 318.275,492.475 317.5,490.5C 318.165,488.899 318.499,487.399 318.5,486C 317.687,484.115 316.353,483.449 314.5,484C 316.891,485.309 316.891,486.309 314.5,487C 315.517,488.049 315.684,489.216 315,490.5C 312.399,489.274 311.565,489.94 312.5,492.5C 309.948,493.44 309.114,492.44 310,489.5C 311.167,488.333 312.333,487.167 313.5,486C 312.273,484.413 312.606,483.079 314.5,482C 314,481.5 313.5,481 313,480.5C 310.517,481.244 307.851,481.244 305,480.5C 304.316,481.784 304.483,482.951 305.5,484C 304.167,484 302.833,484 301.5,484C 301.5,486.333 301.5,488.667 301.5,491C 302.167,491.333 302.833,491.667 303.5,492C 300.65,494.682 297.984,497.516 295.5,500.5C 293.238,499.655 292.571,498.322 293.5,496.5C 294.192,497.025 294.692,497.692 295,498.5C 297.668,497.02 297.835,495.52 295.5,494C 297.279,494.979 298.945,494.646 300.5,493C 297.833,491.667 297.833,490.333 300.5,489C 299.167,488 299.167,487 300.5,486C 299.552,485.517 298.552,485.351 297.5,485.5C 296.948,487.331 296.948,488.997 297.5,490.5C 296.726,491.711 295.893,491.711 295,490.5C 292.858,492.827 290.358,494.493 287.5,495.5C 287.859,497.766 287.192,499.599 285.5,501C 286.308,501.308 286.975,501.808 287.5,502.5C 286.726,503.711 285.893,503.711 285,502.5C 283.417,504.055 281.584,505.222 279.5,506C 280.381,506.708 281.047,507.542 281.5,508.5C 277.5,508.5 273.5,508.5 269.5,508.5C 269.333,474.832 269.5,441.165 270,407.5C 271,409.833 272,412.167 273,414.5C 273.308,413.692 273.808,413.025 274.5,412.5C 275.452,413.533 275.452,414.7 274.5,416C 275.917,419.5 277.583,422.834 279.5,426C 281.978,428.181 283.978,427.848 285.5,425C 283.945,423.354 282.279,423.021 280.5,424C 279.289,423.107 279.289,422.274 280.5,421.5C 281.086,421.709 281.586,422.043 282,422.5C 282.691,420.109 283.691,420.109 285,422.5C 285.718,421.549 286.551,421.383 287.5,422C 286.273,423.587 286.606,424.921 288.5,426C 280.742,430.039 280.742,433.205 288.5,435.5C 286.077,440.374 286.91,440.707 291,436.5C 291.492,435.451 291.326,434.451 290.5,433.5C 291.025,432.808 291.692,432.308 292.5,432C 291.692,431.692 291.025,431.192 290.5,430.5C 290.888,428.359 290.888,426.359 290.5,424.5C 291.648,426.149 292.981,427.649 294.5,429C 294.182,431.042 294.015,433.209 294,435.5C 292.176,436.749 292.343,437.915 294.5,439C 293.167,439 291.833,439 290.5,439C 289.483,440.049 289.316,441.216 290,442.5C 291.113,441.289 292.28,441.289 293.5,442.5C 295.14,440.161 297.14,439.328 299.5,440C 300.833,439.333 300.833,438.667 299.5,438C 298.552,437.517 297.552,437.351 296.5,437.5C 296.575,434.463 296.575,431.796 296.5,429.5C 299.597,430.771 299.931,432.271 297.5,434C 304,436.833 304.167,440 298,443.5C 297.667,442.833 297.333,442.167 297,441.5C 295.833,442.667 294.667,443.833 293.5,445C 295.198,444.503 296.865,444.67 298.5,445.5C 300.984,443.517 303.317,441.35 305.5,439C 303.833,437.333 302.167,435.667 300.5,434C 302.167,433.333 303.833,433.333 305.5,434C 305.167,434.333 304.833,434.667 304.5,435C 305.687,436.019 306.687,437.186 307.5,438.5C 306.167,439.833 306.167,441.167 307.5,442.5C 306.369,443.604 305.535,443.271 305,441.5C 304.626,442.416 304.126,443.25 303.5,444C 304.678,444.967 306.011,445.467 307.5,445.5C 304.474,450.646 302.807,450.646 302.5,445.5C 301.5,446 300.5,446.5 299.5,447C 301.708,449.263 301.041,450.929 297.5,452C 299.574,451.773 301.574,451.939 303.5,452.5C 304.814,451.687 305.981,450.687 307,449.5C 307.833,450.333 308.667,451.167 309.5,452C 307.616,452.216 305.949,452.883 304.5,454C 305.573,455.25 305.573,456.584 304.5,458C 306.485,458.112 308.318,459.279 310,461.5C 310.667,460.5 310.667,459.5 310,458.5C 307.349,457.568 307.015,456.235 309,454.5C 310,455.833 311,455.833 312,454.5C 312.617,455.449 312.451,456.282 311.5,457C 312.333,457.833 313.167,458.667 314,459.5C 316.33,458.167 318.163,456.333 319.5,454C 318.039,451.702 316.372,449.535 314.5,447.5C 314.745,445.078 314.745,442.745 314.5,440.5C 317.167,439.167 319.833,439.167 322.5,440.5C 322.608,443.181 321.941,445.848 320.5,448.5C 320.833,449.5 321.167,450.5 321.5,451.5C 322.354,450.478 323.354,449.645 324.5,449C 323.5,448.667 322.5,448.333 321.5,448C 322.833,446.667 324.167,445.333 325.5,444C 324.289,442.887 324.289,441.72 325.5,440.5C 326.868,439.406 328.035,439.74 329,441.5C 329.374,440.584 329.874,439.75 330.5,439C 330.537,437.051 330.037,435.218 329,433.5C 328.167,434.333 327.333,435.167 326.5,436C 327.451,436.718 327.617,437.551 327,438.5C 325.5,437 324,435.5 322.5,434C 323.951,434.263 325.284,434.096 326.5,433.5C 327.668,432.094 327.335,430.928 325.5,430C 328.1,430.466 330.266,431.966 332,434.5C 332.853,432.875 333.853,432.542 335,433.5C 335.333,430.833 334.333,430.167 332,431.5C 329.904,430.285 330.071,429.451 332.5,429C 329.972,427.684 329.972,426.517 332.5,425.5C 331.674,424.549 331.508,423.549 332,422.5C 332.903,423.701 334.069,424.535 335.5,425C 334.833,425.667 334.167,426.333 333.5,427C 334.667,428.167 335.833,429.333 337,430.5C 337.492,429.451 337.326,428.451 336.5,427.5C 337.698,427.06 338.865,426.727 340,426.5C 341.067,423.084 340.233,419.917 337.5,417C 338.167,416.333 338.833,415.667 339.5,415C 337.071,414.549 336.904,413.715 339,412.5C 341.736,414.029 341.902,415.529 339.5,417C 340.973,417.71 341.64,418.876 341.5,420.5C 342.552,420.649 343.552,420.483 344.5,420C 341.997,418.451 341.997,416.784 344.5,415C 342.699,414.683 342.366,414.016 343.5,413C 340.619,410.048 341.119,407.214 345,404.5C 345.5,439.165 345.667,473.832 345.5,508.5 Z"/></g>
<g><path style="opacity:1" fill="#ebebeb" d="M 411.5,314.5 C 411.5,314.833 411.5,315.167 411.5,315.5C 390.167,315.5 368.833,315.5 347.5,315.5C 347.5,379.833 347.5,444.167 347.5,508.5C 347.167,508.5 346.833,508.5 346.5,508.5C 346.5,443.833 346.5,379.167 346.5,314.5C 368.167,314.5 389.833,314.5 411.5,314.5 Z"/></g>
<g><path style="opacity:1" fill="#c7c7c7" d="M 336.5,508.5 C 318.167,508.5 299.833,508.5 281.5,508.5C 281.047,507.542 280.381,506.708 279.5,506C 281.584,505.222 283.417,504.055 285,502.5C 285.893,503.711 286.726,503.711 287.5,502.5C 286.975,501.808 286.308,501.308 285.5,501C 287.192,499.599 287.859,497.766 287.5,495.5C 290.358,494.493 292.858,492.827 295,490.5C 295.893,491.711 296.726,491.711 297.5,490.5C 296.948,488.997 296.948,487.331 297.5,485.5C 298.552,485.351 299.552,485.517 300.5,486C 299.167,487 299.167,488 300.5,489C 297.833,490.333 297.833,491.667 300.5,493C 298.945,494.646 297.279,494.979 295.5,494C 297.835,495.52 297.668,497.02 295,498.5C 294.692,497.692 294.192,497.025 293.5,496.5C 292.571,498.322 293.238,499.655 295.5,500.5C 297.984,497.516 300.65,494.682 303.5,492C 302.833,491.667 302.167,491.333 301.5,491C 301.5,488.667 301.5,486.333 301.5,484C 302.833,484 304.167,484 305.5,484C 304.483,482.951 304.316,481.784 305,480.5C 307.851,481.244 310.517,481.244 313,480.5C 313.5,481 314,481.5 314.5,482C 312.606,483.079 312.273,484.413 313.5,486C 312.333,487.167 311.167,488.333 310,489.5C 309.114,492.44 309.948,493.44 312.5,492.5C 311.565,489.94 312.399,489.274 315,490.5C 315.684,489.216 315.517,488.049 314.5,487C 316.891,486.309 316.891,485.309 314.5,484C 316.353,483.449 317.687,484.115 318.5,486C 318.499,487.399 318.165,488.899 317.5,490.5C 318.275,492.475 319.609,493.309 321.5,493C 318.833,491.667 318.833,490.333 321.5,489C 320.289,488.107 320.289,487.274 321.5,486.5C 323.146,488.392 323.48,490.392 322.5,492.5C 324.201,492.19 325.868,492.69 327.5,494C 325.343,495.085 325.176,496.251 327,497.5C 328.183,496.269 329.349,496.269 330.5,497.5C 329.41,498.609 329.41,499.609 330.5,500.5C 331.192,499.975 331.692,499.308 332,498.5C 332.71,499.973 333.876,500.64 335.5,500.5C 335.607,502.903 334.607,504.736 332.5,506C 333,506.5 333.5,507 334,507.5C 335.141,504.99 336.974,503.824 339.5,504C 337.859,505.129 336.859,506.629 336.5,508.5 Z"/></g>
<g><path style="opacity:1" fill="#cdcdcd" d="M -0.5,486.5 C 0.166667,486.5 0.833333,486.5 1.5,486.5C 1.33669,488.857 1.50335,491.19 2,493.5C 6.12062,500.125 11.6206,505.125 18.5,508.5C 12.1667,508.5 5.83333,508.5 -0.5,508.5C -0.5,501.167 -0.5,493.833 -0.5,486.5 Z"/></g>
<g><path style="opacity:1" fill="#cfcfcf" d="M 502.5,486.5 C 502.5,493.833 502.5,501.167 502.5,508.5C 496.5,508.5 490.5,508.5 484.5,508.5C 488.686,506.013 492.686,503.013 496.5,499.5C 498.809,495.221 500.809,490.888 502.5,486.5 Z"/></g>
</svg>
