<?xml version="1.0" standalone="no"?>
<!DOCTYPE svg PUBLIC "-//W3C//DTD SVG 20010904//EN"
 "http://www.w3.org/TR/2001/REC-SVG-20010904/DTD/svg10.dtd">
<svg version="1.0" xmlns="http://www.w3.org/2000/svg"
 width="2580.000000pt" height="2109.000000pt" viewBox="0 0 2580.000000 2109.000000"
 preserveAspectRatio="xMidYMid meet">

<g transform="translate(0.000000,2109.000000) scale(0.100000,-0.100000)"
fill="#000000" stroke="none">
<path d="M17605 20869 c-1838 -128 -3468 -1201 -4314 -2839 -401 -777 -600
-1646 -578 -2520 9 -342 35 -580 98 -908 17 -90 30 -164 28 -166 -2 -2 -96 3
-208 10 -3070 201 -5964 1325 -8366 3249 -752 603 -1488 1323 -2108 2062
l-135 162 -23 -37 c-12 -20 -59 -109 -105 -197 -533 -1026 -708 -2224 -493
-3376 247 -1327 1013 -2526 2115 -3309 146 -104 153 -98 -87 -79 -705 55
-1389 247 -1998 560 -85 43 -156 79 -158 79 -7 0 -2 -294 7 -425 113 -1544
873 -2931 2115 -3855 549 -409 1177 -707 1848 -875 98 -25 187 -45 198 -45 86
0 -118 -55 -391 -106 -356 -66 -651 -88 -1055 -81 -307 5 -513 24 -764 67 -63
11 -116 18 -118 16 -5 -5 61 -192 117 -331 421 -1055 1168 -1941 2144 -2543
169 -103 550 -298 731 -372 489 -200 998 -325 1524 -375 91 -8 199 -16 240
-16 157 -3 158 3 -39 -145 -1547 -1156 -3368 -1866 -5270 -2053 -418 -41 -525
-46 -1070 -46 -542 0 -738 9 -1108 50 -70 8 -128 13 -130 11 -5 -6 313 -202
554 -342 1941 -1125 4100 -1798 6319 -1968 720 -56 1523 -59 2260 -11 3125
207 5890 1259 8215 3126 425 341 713 601 1151 1038 346 347 510 523 774 831
997 1164 1831 2507 2447 3940 612 1423 1016 2944 1177 4440 65 595 74 785 77
1539 l2 674 158 120 c821 620 1541 1345 2151 2167 188 254 263 365 263 389 0
21 -1 21 -37 5 -873 -375 -1811 -637 -2728 -764 -82 -11 -160 -23 -172 -25
-31 -7 -29 9 3 24 14 6 85 51 157 99 932 617 1645 1515 2031 2554 72 196 79
218 72 218 -3 0 -65 -34 -138 -76 -927 -533 -1996 -940 -3049 -1162 l-136 -29
-139 136 c-788 770 -1747 1264 -2808 1445 -391 68 -862 92 -1251 65z"/>
</g>
</svg>
